<?xml version="1.0" encoding="UTF-8" ?>
<!DOCTYPE svg PUBLIC "-//W3C//DTD SVG 1.1//EN" "http://www.w3.org/Graphics/SVG/1.1/DTD/svg11.dtd">
<svg width="1080pt" height="1080pt" viewBox="0 0 1080 1080" version="1.1" xmlns="http://www.w3.org/2000/svg">
<g id="#6a205aff">
<path fill="#6a205a" opacity="1.00" d=" M 475.44 127.61 C 483.57 126.16 491.89 126.68 500.00 127.99 C 512.01 130.33 524.63 129.24 536.21 133.74 C 545.88 135.72 554.40 140.74 563.36 144.63 C 570.88 148.50 577.39 154.00 584.57 158.44 C 587.27 160.00 590.20 163.01 593.57 161.55 C 597.56 159.36 600.51 155.63 604.71 153.75 C 612.24 150.30 620.64 149.68 628.53 147.37 C 635.04 145.65 641.02 141.81 647.96 141.94 C 656.30 142.08 664.68 140.20 672.97 141.81 C 679.95 143.09 687.11 142.80 694.10 143.96 C 700.72 145.09 706.26 149.10 712.39 151.55 C 720.38 154.81 727.68 159.44 734.92 164.09 C 741.95 168.54 747.33 175.01 753.62 180.37 C 759.19 185.49 765.27 190.57 768.34 197.68 C 770.07 201.06 771.35 205.33 775.05 207.06 C 783.33 209.76 792.06 207.54 800.21 205.49 C 804.80 204.63 809.49 205.43 814.07 206.02 C 821.18 207.12 828.52 207.11 835.36 209.57 C 843.71 212.50 853.22 212.97 860.36 218.71 C 863.29 221.19 866.49 223.29 869.81 225.22 C 873.60 227.35 874.99 232.05 878.93 234.01 C 883.88 236.53 887.60 240.71 891.75 244.29 C 894.25 246.49 896.06 249.32 898.01 252.01 C 900.62 255.66 904.22 258.48 906.76 262.20 C 912.82 271.05 916.66 281.23 923.10 289.84 C 927.50 298.85 930.48 308.50 934.04 317.88 C 936.06 323.23 935.92 329.22 938.69 334.33 C 943.70 343.39 943.12 354.20 947.36 363.55 C 950.23 372.88 950.05 382.83 951.65 392.42 C 953.15 400.14 952.67 408.04 953.37 415.84 C 953.78 427.02 953.76 438.22 954.69 449.38 C 955.44 454.58 956.51 459.77 956.42 465.07 C 956.36 470.79 958.40 476.27 958.42 481.98 C 958.20 496.23 960.16 510.42 959.67 524.67 C 959.23 532.38 956.62 539.92 957.42 547.69 C 964.21 550.91 971.93 551.19 979.15 553.00 C 984.75 554.85 989.51 558.51 994.53 561.51 C 1001.58 566.39 1010.23 569.35 1015.47 576.51 C 1020.37 583.23 1027.40 588.32 1031.03 595.96 C 1033.00 600.17 1035.03 604.36 1037.90 608.05 C 1043.20 615.16 1045.44 623.89 1047.37 632.40 C 1048.32 638.56 1047.47 644.82 1048.00 651.02 C 1049.24 664.54 1047.51 678.32 1043.44 691.25 C 1041.45 698.28 1037.08 704.22 1033.40 710.41 C 1027.39 719.89 1021.75 729.77 1013.75 737.77 C 1008.79 742.52 1005.58 748.85 1000.02 753.00 C 994.54 757.89 987.40 760.19 981.60 764.60 C 976.96 768.14 971.47 770.34 966.83 773.88 C 957.36 781.43 944.58 782.06 932.98 782.29 C 925.55 782.05 918.40 784.59 910.99 784.45 C 904.65 784.34 898.32 784.47 891.99 784.41 C 887.80 784.41 883.66 782.83 879.49 783.51 C 877.05 785.87 875.71 789.06 873.78 791.80 C 868.53 799.75 860.61 805.46 855.52 813.52 C 851.86 819.16 845.88 822.53 841.28 827.28 C 836.67 831.67 833.15 837.19 827.83 840.82 C 823.79 843.83 818.68 845.40 815.45 849.44 C 810.18 856.68 801.47 859.97 795.47 866.45 C 791.84 870.30 786.82 872.33 782.89 875.83 C 773.92 883.52 761.83 885.57 752.07 891.92 C 745.71 894.83 740.05 899.07 733.53 901.64 C 729.05 903.72 724.36 905.29 719.64 906.73 C 712.38 908.93 705.45 912.10 698.12 914.08 C 691.25 915.93 684.92 919.35 677.99 921.00 C 672.57 922.13 667.93 925.68 662.35 926.19 C 656.43 926.84 650.42 926.96 644.61 928.39 C 636.67 930.34 628.42 930.15 620.40 931.54 C 614.59 932.56 608.77 933.54 602.86 933.40 C 593.78 936.12 584.08 935.07 574.76 936.40 C 566.48 936.79 558.35 939.09 550.02 938.38 C 539.01 937.43 527.97 938.11 516.95 937.58 C 511.70 937.62 506.41 937.79 501.27 936.57 C 492.41 934.64 483.25 936.57 474.38 934.78 C 466.99 933.70 459.47 935.07 452.09 933.84 C 446.75 932.94 441.43 931.69 435.98 931.71 C 427.15 931.66 418.13 932.13 409.58 929.50 C 403.32 927.43 396.64 927.92 390.26 926.51 C 382.24 924.81 374.12 923.45 366.37 920.70 C 353.87 917.63 341.72 913.30 329.51 909.28 C 322.65 905.45 314.99 903.53 308.02 899.96 C 301.38 896.70 293.75 895.71 287.62 891.37 C 282.06 887.37 275.35 885.34 270.01 881.03 C 266.75 878.55 262.85 876.98 259.85 874.16 C 257.21 871.79 254.99 868.83 251.71 867.31 C 249.01 865.94 246.00 865.19 243.53 863.41 C 241.35 861.57 239.86 859.09 238.01 856.96 C 232.90 850.72 225.85 846.48 220.50 840.49 C 216.88 836.11 214.25 830.88 209.85 827.16 C 206.64 824.32 202.51 822.62 199.69 819.33 C 197.25 816.35 195.75 812.70 193.14 809.86 C 189.19 805.39 183.52 802.92 179.58 798.44 C 175.81 794.41 173.93 788.94 169.70 785.30 C 165.29 781.34 161.63 776.68 157.84 772.16 C 156.18 770.53 154.55 768.15 151.96 768.28 C 147.37 768.14 142.74 768.80 138.18 768.02 C 132.81 767.10 127.44 766.13 122.10 765.04 C 116.90 763.97 112.26 761.28 107.25 759.64 C 102.02 757.77 96.36 757.18 91.36 754.64 C 83.52 750.72 75.25 747.26 68.69 741.27 C 61.89 735.11 54.59 729.32 49.12 721.87 C 46.35 717.99 43.51 714.16 40.63 710.36 C 34.19 702.14 31.29 691.84 28.97 681.84 C 28.40 673.97 27.07 666.04 28.17 658.16 C 28.83 652.02 28.20 645.81 29.28 639.71 C 30.57 632.25 30.38 624.46 33.23 617.34 C 35.10 611.65 38.77 606.85 41.56 601.62 C 45.82 593.59 50.32 585.37 57.08 579.15 C 62.33 575.42 66.24 570.00 72.06 567.06 C 78.92 563.56 85.12 558.71 92.52 556.32 C 100.00 553.61 107.61 551.22 115.43 549.68 C 119.71 548.97 124.12 549.37 128.35 548.31 C 129.04 543.90 128.53 539.42 128.59 534.99 C 128.62 523.66 128.52 512.32 129.01 501.00 C 129.05 495.80 128.99 490.48 127.39 485.48 C 125.89 480.64 124.22 475.82 123.54 470.78 C 121.56 454.88 123.47 438.89 123.29 422.95 C 123.51 414.55 125.45 406.33 126.25 397.99 C 126.79 391.02 129.65 384.55 132.19 378.13 C 136.12 368.37 143.18 360.38 148.16 351.19 C 150.05 347.87 151.52 344.14 154.56 341.65 C 161.20 336.29 166.51 329.55 172.69 323.70 C 174.65 321.71 176.95 319.95 178.38 317.51 C 179.18 312.52 177.70 307.29 179.45 302.42 C 184.27 289.15 188.34 275.50 195.08 263.02 C 197.75 258.22 202.10 254.73 205.63 250.61 C 209.19 246.75 211.45 241.88 215.13 238.12 C 217.24 235.81 219.88 234.11 222.53 232.49 C 227.61 229.39 231.76 225.06 236.35 221.33 C 240.69 217.57 246.61 216.56 251.17 213.12 C 256.49 209.17 263.02 207.65 268.95 204.89 C 279.89 199.50 291.82 196.01 303.95 194.77 C 311.89 194.61 320.01 193.94 327.76 196.09 C 335.25 197.75 342.83 200.40 350.60 199.51 C 353.21 198.35 354.73 195.63 356.53 193.51 C 360.70 188.33 361.91 181.37 366.47 176.46 C 370.77 171.61 377.06 169.21 381.45 164.47 C 386.98 158.79 393.84 154.75 400.44 150.48 C 408.10 145.77 417.06 144.05 425.17 140.34 C 441.01 133.11 458.36 130.26 475.44 127.61 M 467.46 163.57 C 463.05 163.94 458.70 164.88 454.63 166.62 C 448.26 169.26 441.30 169.48 434.60 170.62 C 427.02 171.86 421.00 176.93 414.31 180.28 C 408.45 183.24 405.53 189.72 399.70 192.74 C 388.57 198.85 382.72 210.65 375.68 220.64 C 370.28 228.64 360.56 233.12 351.03 233.04 C 341.22 233.26 331.74 230.19 322.05 229.30 C 315.01 229.69 307.68 228.26 300.89 230.72 C 295.76 232.50 290.33 233.02 285.06 234.15 C 279.80 235.12 275.80 238.93 271.04 241.04 C 261.02 245.31 252.85 252.73 244.57 259.60 C 238.23 264.61 233.83 271.50 228.10 277.12 C 221.68 282.29 220.25 290.69 216.53 297.60 C 211.45 306.61 211.31 317.23 210.40 327.25 C 209.51 334.66 203.06 339.36 197.68 343.70 C 193.30 346.99 189.90 351.29 186.34 355.39 C 182.47 359.88 176.89 362.60 173.46 367.52 C 169.19 372.98 167.44 379.78 164.99 386.13 C 161.01 396.14 157.70 406.51 156.23 417.21 C 155.32 423.25 157.15 429.19 157.70 435.16 C 158.33 441.77 159.12 448.37 159.15 455.01 C 159.17 466.37 159.98 477.71 161.21 488.99 C 162.17 500.03 159.73 510.96 160.05 522.00 C 159.82 530.50 161.38 538.90 162.74 547.26 C 163.78 553.02 163.41 559.01 165.28 564.63 C 166.88 569.54 167.27 574.73 168.33 579.76 C 169.29 584.54 172.96 588.21 173.93 592.99 C 175.26 598.43 176.04 604.60 180.31 608.66 C 183.75 611.23 188.52 611.31 192.56 610.46 C 196.12 608.14 198.66 604.58 201.22 601.26 C 205.00 595.66 209.63 590.60 212.45 584.40 C 217.08 575.68 216.07 565.51 218.04 556.11 C 220.44 543.70 220.43 530.99 222.68 518.57 C 223.28 515.07 223.39 511.51 223.33 507.97 C 223.16 502.30 224.38 496.67 226.29 491.36 C 227.42 488.08 230.26 485.90 232.98 483.97 C 236.21 481.74 239.50 479.51 243.21 478.17 C 246.86 476.83 250.81 477.05 254.57 476.25 C 257.20 475.59 259.53 474.14 261.98 473.04 C 266.78 470.71 272.08 469.49 276.64 466.65 C 283.56 462.27 290.28 457.60 297.08 453.03 C 300.04 451.05 302.25 448.23 304.47 445.51 C 307.72 441.41 312.40 438.79 315.81 434.84 C 319.59 430.45 322.93 425.64 325.43 420.40 C 328.04 414.91 331.62 409.96 334.51 404.63 C 337.58 398.98 341.50 393.75 343.53 387.59 C 344.97 383.72 345.92 379.03 349.86 376.87 C 354.11 374.61 359.15 374.02 362.98 370.92 C 366.60 368.06 371.00 365.73 375.77 366.31 C 383.68 366.82 388.63 374.32 396.24 375.75 C 403.65 377.21 410.49 380.63 417.92 382.03 C 426.42 384.11 435.44 385.44 444.02 382.99 C 451.74 380.67 459.80 379.87 467.57 377.77 C 476.60 375.41 486.50 376.37 494.90 371.79 C 498.18 369.95 501.60 368.37 505.14 367.09 C 510.32 365.24 514.23 360.75 519.77 359.76 C 525.70 358.30 531.02 362.27 535.82 365.16 C 539.89 367.93 544.66 369.26 549.36 370.55 C 559.25 373.59 569.27 376.67 579.64 377.52 C 588.41 378.19 596.54 374.16 605.11 373.11 C 612.45 372.15 619.57 369.97 626.92 369.07 C 633.39 368.38 636.40 361.76 641.19 358.23 C 645.21 354.54 651.05 355.82 655.99 355.84 C 662.45 356.01 669.49 356.86 674.28 361.70 C 678.61 365.14 680.52 370.69 684.78 374.17 C 688.61 376.67 693.44 376.65 697.57 378.52 C 706.57 382.56 716.50 383.75 725.65 387.37 C 728.92 388.72 732.50 389.02 736.00 388.66 C 746.04 387.69 755.67 384.45 765.11 381.03 C 769.62 379.45 774.06 377.24 778.96 377.28 C 783.09 377.26 787.49 376.77 791.35 378.60 C 796.42 380.96 802.24 382.56 805.78 387.23 C 813.88 396.76 814.28 410.11 814.30 422.00 C 813.92 427.81 815.89 433.34 816.84 438.99 C 818.35 447.41 820.00 455.89 823.36 463.80 C 826.40 470.89 828.31 478.38 830.28 485.82 C 831.82 491.78 835.48 496.89 837.25 502.77 C 839.23 509.49 844.24 514.65 847.06 520.98 C 849.39 526.04 853.73 529.77 856.37 534.66 C 859.72 540.98 864.85 546.20 870.54 550.47 C 876.23 554.71 880.32 560.88 886.68 564.27 C 893.03 568.10 900.72 568.96 907.97 567.96 C 911.00 567.63 912.91 564.93 914.69 562.75 C 917.51 558.77 920.75 554.74 921.57 549.78 C 922.33 545.08 923.50 540.48 924.79 535.91 C 926.74 528.96 925.73 521.68 926.49 514.58 C 928.04 500.36 924.90 486.19 924.95 471.98 C 925.07 467.53 923.90 463.21 922.92 458.92 C 921.35 452.68 922.21 446.10 920.28 439.93 C 918.58 433.78 917.88 427.38 918.13 421.00 C 918.64 408.40 916.58 395.92 915.45 383.41 C 914.70 375.99 914.51 368.45 912.58 361.21 C 909.19 349.94 908.32 337.99 903.84 327.03 C 901.68 321.69 898.30 316.91 896.57 311.38 C 893.19 300.23 885.95 290.88 879.74 281.20 C 873.68 274.32 868.51 266.43 860.76 261.25 C 855.49 257.95 851.21 253.28 845.66 250.40 C 842.01 248.43 838.64 245.94 834.85 244.25 C 825.33 240.30 814.83 240.57 804.79 239.20 C 791.88 237.15 778.98 241.28 766.05 240.06 C 763.32 239.53 761.16 237.64 758.89 236.19 C 756.15 234.24 753.08 232.72 750.68 230.34 C 745.85 225.00 745.16 217.10 739.93 212.05 C 736.22 208.41 731.87 205.48 728.31 201.68 C 724.41 197.94 721.80 192.71 716.65 190.45 C 710.01 187.38 705.07 181.76 698.66 178.33 C 694.78 176.06 690.49 174.50 686.00 174.05 C 677.40 173.09 668.82 171.72 660.16 171.53 C 652.38 171.94 644.54 173.23 637.32 176.24 C 632.53 178.23 627.63 179.94 622.87 181.99 C 617.67 184.21 613.20 187.79 608.05 190.08 C 604.54 191.65 600.72 192.44 597.32 194.25 C 594.05 195.92 590.85 198.21 587.03 198.26 C 583.55 198.35 579.92 198.52 576.58 197.41 C 573.13 195.29 570.63 192.00 567.49 189.49 C 560.79 183.40 553.57 177.84 545.63 173.45 C 541.26 171.03 536.26 170.31 531.41 169.47 C 523.82 168.20 516.57 165.49 509.00 164.14 C 502.09 162.68 495.00 163.13 488.00 163.07 C 481.15 163.10 474.28 162.86 467.46 163.57 M 647.30 400.25 C 642.07 403.55 635.61 401.11 630.01 403.12 C 621.31 406.30 611.80 404.11 602.97 406.61 C 596.98 407.87 591.20 410.40 585.00 410.36 C 576.22 410.28 567.46 409.66 558.70 409.11 C 558.96 407.27 555.77 406.94 555.06 408.39 C 546.13 406.10 537.23 403.61 528.64 400.24 C 523.18 397.90 518.14 401.87 512.95 403.00 C 503.85 405.58 494.27 403.27 485.11 405.38 C 477.29 407.02 469.58 409.28 462.15 412.24 C 457.57 413.91 452.67 414.42 447.97 415.71 C 438.44 418.14 428.61 416.44 418.93 416.64 C 406.31 415.83 394.10 412.20 382.40 407.57 C 379.36 406.54 375.76 404.67 372.74 406.73 C 371.06 408.19 370.22 410.34 369.29 412.31 C 366.36 419.23 363.34 426.13 359.68 432.71 C 357.17 437.45 352.10 440.22 349.89 445.17 C 353.78 443.46 357.08 440.66 360.97 438.93 C 364.75 437.22 368.76 436.10 372.55 434.43 C 378.01 431.83 384.18 431.80 389.97 430.34 C 400.91 428.89 412.00 429.92 423.00 429.57 C 437.45 428.96 451.35 433.66 464.77 438.43 C 469.95 440.53 474.45 443.92 479.19 446.82 C 483.96 450.07 489.45 452.29 493.62 456.38 C 496.34 459.00 499.01 461.68 501.97 464.04 C 508.78 469.40 513.04 477.14 517.58 484.36 C 520.90 491.19 525.98 496.93 529.50 503.65 C 533.35 504.21 537.15 502.80 541.00 502.66 C 547.31 502.36 553.64 502.62 559.97 502.56 C 570.74 502.50 581.24 505.67 591.00 510.02 C 594.34 511.51 597.38 513.65 600.83 514.90 C 604.50 510.74 606.80 505.59 610.33 501.31 C 613.66 496.97 618.51 494.18 622.01 490.01 C 626.56 484.57 631.83 479.77 637.46 475.47 C 642.10 472.22 647.42 470.13 652.32 467.31 C 659.72 463.16 668.15 461.66 676.09 458.91 C 687.17 454.55 699.36 455.96 711.00 455.60 C 718.27 455.16 725.22 457.59 732.27 458.92 C 741.36 461.67 750.98 463.02 759.48 467.47 C 763.85 469.92 768.99 470.82 772.97 474.02 C 778.06 477.93 784.07 480.73 788.27 485.72 C 790.50 488.04 792.25 491.02 795.28 492.41 C 792.85 480.80 788.46 469.75 785.79 458.20 C 783.02 448.81 782.61 438.95 780.31 429.45 C 779.15 424.81 779.35 419.98 778.52 415.29 C 776.24 414.26 773.69 414.51 771.33 415.06 C 767.53 415.90 763.69 416.54 759.90 417.45 C 758.90 416.07 755.35 416.06 755.28 418.04 C 754.43 418.12 752.73 418.28 751.88 418.37 C 751.12 416.94 747.97 417.36 748.28 419.18 C 741.19 420.01 734.05 421.11 726.93 419.86 C 713.29 417.93 698.76 418.32 686.26 411.80 C 680.99 409.46 675.36 407.78 670.67 404.33 C 667.44 402.14 664.56 399.33 660.88 397.90 C 656.25 396.87 651.34 397.80 647.30 400.25 M 395.03 456.81 C 383.30 458.46 372.05 462.82 361.90 468.85 C 356.19 472.38 351.29 477.06 345.64 480.69 C 332.95 489.02 323.94 501.72 316.92 514.95 C 313.24 521.58 309.92 528.58 309.24 536.25 C 307.50 536.62 307.20 537.53 308.33 538.96 C 304.90 549.49 304.38 560.78 305.48 571.74 C 305.69 581.87 309.14 591.56 313.35 600.65 C 316.87 607.32 320.06 614.15 322.76 621.19 C 324.92 627.29 330.78 630.54 335.37 634.60 C 340.98 639.97 348.30 643.14 355.66 645.27 C 361.05 646.78 366.31 649.11 372.00 649.21 C 378.02 649.31 383.98 650.50 390.02 650.41 C 400.07 650.37 410.34 650.94 420.13 648.18 C 430.04 645.31 440.02 642.19 448.95 636.91 C 461.98 628.56 471.63 616.25 481.83 604.85 C 487.81 597.50 494.38 590.04 496.67 580.58 C 501.41 567.28 503.83 553.13 503.46 539.00 C 503.36 534.65 503.83 530.19 502.76 525.93 C 503.86 524.51 503.56 523.61 501.86 523.21 C 501.62 517.88 498.85 513.17 497.01 508.29 C 495.01 503.30 494.06 497.70 490.46 493.52 C 484.94 487.37 479.96 480.57 472.94 476.01 C 460.65 466.02 445.39 460.54 429.96 457.68 C 418.60 454.10 406.65 456.16 395.03 456.81 M 685.46 484.64 C 676.29 487.04 666.86 489.45 658.98 494.97 C 652.26 499.76 644.77 504.08 640.14 511.14 C 635.29 518.11 630.04 524.98 626.99 532.98 C 624.43 539.52 624.20 546.63 622.54 553.40 C 621.01 559.48 621.63 565.79 621.53 572.00 C 621.70 578.72 620.94 585.55 622.52 592.15 C 624.42 601.29 629.40 609.30 633.33 617.64 C 636.11 623.63 640.45 628.69 643.46 634.55 C 648.41 643.55 655.46 651.31 663.98 657.05 C 670.56 661.42 677.23 665.89 684.77 668.46 C 689.91 670.22 694.70 673.03 700.12 673.92 C 707.63 675.24 715.18 676.37 722.69 677.72 C 731.08 679.29 739.63 678.06 748.07 677.63 C 753.54 677.48 758.20 674.32 763.05 672.16 C 767.78 669.74 773.28 667.99 776.39 663.37 C 783.79 653.17 792.48 643.93 799.19 633.23 C 802.79 627.66 803.97 621.02 806.16 614.86 C 810.55 603.44 809.01 590.96 809.38 579.00 C 809.78 572.23 806.96 565.93 805.88 559.35 C 804.21 550.15 799.70 541.87 795.23 533.78 C 792.38 528.47 787.28 524.90 784.27 519.70 C 776.00 506.94 763.05 498.19 749.82 491.21 C 743.79 488.83 737.28 487.91 731.23 485.55 C 723.17 482.39 714.42 483.79 706.00 483.49 C 699.15 483.70 692.16 482.87 685.46 484.64 M 284.06 501.11 C 278.73 503.85 272.66 504.07 266.92 505.36 C 266.22 503.89 263.02 504.22 263.29 506.06 C 261.69 506.18 259.70 506.05 258.63 507.49 C 257.36 513.57 257.36 519.82 257.28 526.01 C 257.02 536.53 252.62 546.49 252.67 557.04 C 252.57 563.42 251.51 569.77 249.89 575.93 C 247.35 583.10 245.69 590.59 242.46 597.51 C 239.99 602.82 238.44 608.52 235.63 613.68 C 232.92 618.73 228.74 622.74 224.98 626.99 C 220.21 631.99 214.97 636.91 208.44 639.47 C 202.52 641.81 196.41 643.94 189.99 644.15 C 183.84 644.37 177.23 645.49 171.55 642.50 C 166.94 640.23 161.74 638.72 158.11 634.90 C 154.85 631.43 151.93 627.65 149.26 623.72 C 146.73 620.05 145.60 615.62 142.97 612.02 C 141.24 609.57 139.07 607.18 138.89 604.03 C 138.26 598.35 137.11 592.27 133.10 587.94 C 128.87 584.56 123.34 583.23 118.04 582.80 C 110.61 582.17 104.15 586.48 97.18 588.24 C 91.38 589.67 87.06 594.02 82.27 597.30 C 76.59 601.76 72.97 608.26 69.14 614.26 C 65.97 621.38 64.54 629.17 62.72 636.73 C 60.50 645.35 62.58 654.29 61.03 662.99 C 59.61 670.02 62.01 677.02 64.96 683.31 C 67.10 687.05 66.81 691.87 69.87 695.13 C 73.65 699.36 78.33 702.66 82.22 706.79 C 85.15 709.57 87.37 712.98 89.96 716.06 C 93.13 719.43 97.94 720.20 101.93 722.22 C 107.40 724.96 113.05 727.43 118.97 729.03 C 122.40 730.01 126.14 730.07 129.31 731.86 C 134.70 734.95 141.15 734.67 147.08 735.90 C 152.49 736.95 157.39 740.05 162.99 740.28 C 165.79 740.58 168.87 740.02 171.38 741.58 C 178.20 745.28 182.20 752.16 187.28 757.73 C 192.76 763.64 197.53 770.14 202.54 776.45 C 205.87 780.82 211.34 782.95 214.37 787.62 C 217.81 792.79 222.63 796.70 227.25 800.75 C 235.27 807.78 241.03 816.95 248.86 824.15 C 254.62 828.30 260.02 832.93 264.92 838.08 C 269.69 843.19 276.01 846.33 281.58 850.44 C 285.73 853.48 290.38 855.71 294.96 858.04 C 301.42 861.19 307.15 865.81 314.12 867.88 C 320.52 869.75 326.08 873.55 332.35 875.73 C 340.67 878.37 348.08 883.30 356.61 885.39 C 365.18 888.64 374.57 887.79 383.24 890.59 C 388.91 892.37 394.90 892.70 400.61 894.33 C 409.01 896.39 417.21 900.01 426.00 899.72 C 433.10 899.89 439.91 902.19 446.96 902.75 C 453.83 903.41 460.84 902.82 467.61 904.45 C 477.24 906.77 487.22 905.03 496.99 906.11 C 509.34 907.19 521.66 905.05 534.02 905.69 C 539.42 905.99 544.59 903.83 549.99 904.09 C 555.27 904.21 560.58 904.50 565.83 903.73 C 573.51 902.57 581.26 903.60 588.97 903.28 C 595.04 903.08 600.87 901.13 606.91 900.67 C 614.29 900.02 621.66 898.99 628.79 896.91 C 637.00 894.57 645.66 894.37 653.78 891.67 C 658.45 890.19 663.23 889.10 668.02 888.05 C 672.17 887.11 676.49 887.49 680.64 886.58 C 686.08 885.32 690.39 881.35 695.79 879.96 C 701.40 878.42 707.21 877.25 712.32 874.32 C 718.55 870.74 725.50 868.80 732.15 866.21 C 735.41 864.98 738.09 862.65 741.28 861.28 C 747.51 858.50 753.21 854.71 758.70 850.69 C 763.38 847.15 769.16 845.43 773.81 841.82 C 778.19 838.45 782.88 835.52 787.50 832.51 C 791.11 830.18 793.77 826.70 797.38 824.39 C 808.11 818.13 815.71 808.02 825.06 800.06 C 834.75 791.25 841.76 780.06 850.01 769.98 C 853.45 765.81 856.12 760.55 861.26 758.22 C 867.51 755.40 874.05 752.67 881.01 752.40 C 892.01 752.21 903.01 751.59 913.99 750.85 C 920.36 750.45 926.92 751.28 933.06 749.07 C 948.25 744.61 964.41 740.38 976.34 729.35 C 981.53 725.13 984.67 719.05 989.65 714.65 C 992.29 712.26 994.55 709.49 996.59 706.59 C 999.32 702.68 1003.17 699.63 1005.50 695.42 C 1007.73 691.41 1008.64 686.85 1010.68 682.76 C 1012.99 677.70 1016.31 672.78 1016.37 667.03 C 1016.50 662.02 1016.37 657.02 1016.46 652.02 C 1016.86 642.50 1013.40 633.44 1010.15 624.67 C 1008.02 620.18 1007.25 614.93 1003.81 611.16 C 999.33 605.99 994.76 600.91 990.15 595.87 C 987.42 592.91 984.64 589.87 981.05 587.96 C 977.38 585.72 973.08 584.94 969.34 582.88 C 966.80 581.47 963.78 581.73 960.99 581.63 C 955.64 581.72 950.28 581.45 944.94 581.67 C 941.18 581.76 938.16 584.23 935.21 586.25 C 930.94 589.34 926.52 592.22 922.23 595.27 C 919.10 597.46 916.19 600.23 912.39 601.17 C 903.59 603.19 894.52 601.47 885.97 599.17 C 878.85 597.21 872.73 592.91 865.98 590.07 C 862.58 588.71 859.58 586.57 857.18 583.82 C 853.55 579.71 848.57 577.14 844.84 573.14 C 841.15 569.45 838.25 564.94 833.91 561.94 C 833.03 567.29 834.29 572.63 834.53 577.98 C 834.69 585.00 835.96 591.96 835.84 599.01 C 836.46 611.18 832.69 622.95 829.48 634.54 C 827.25 639.89 826.30 645.87 822.77 650.59 C 820.25 654.70 817.09 658.33 814.11 662.09 C 806.84 671.70 798.71 680.84 788.72 687.71 C 781.28 693.63 772.05 696.43 763.39 699.93 C 758.78 700.87 754.92 704.22 750.06 704.17 C 738.18 704.45 726.24 704.86 714.40 703.49 C 707.81 702.83 701.64 699.88 694.96 699.79 C 686.05 699.70 677.98 695.50 670.08 691.88 C 661.99 687.88 656.09 679.94 647.30 677.40 C 638.07 668.34 628.55 659.17 622.27 647.71 C 617.32 639.08 610.60 631.46 606.85 622.15 C 604.92 617.61 604.31 612.55 601.73 608.29 C 599.38 604.08 595.88 600.38 594.76 595.58 C 593.08 586.82 593.74 577.86 593.60 569.00 C 593.49 562.65 594.20 556.33 594.52 550.00 C 594.73 546.05 596.11 542.07 595.16 538.14 C 592.55 535.40 589.00 533.86 585.61 532.34 C 571.37 526.12 555.34 523.03 539.89 525.48 C 539.21 523.86 535.92 524.50 536.46 526.38 L 535.71 526.57 C 533.83 530.35 533.40 534.63 532.77 538.75 C 531.67 548.19 530.97 557.70 528.97 567.01 C 527.02 576.28 525.93 585.95 521.47 594.46 C 519.51 599.15 516.70 603.51 512.66 606.67 C 507.02 611.07 505.10 618.31 500.41 623.49 C 496.86 627.57 493.25 631.60 489.27 635.27 C 481.50 642.51 474.79 651.04 465.58 656.59 C 459.20 660.32 453.07 664.74 445.92 666.90 C 442.34 668.00 439.01 669.72 435.55 671.12 C 428.15 672.51 421.72 677.36 414.09 677.74 C 407.81 678.20 401.46 678.96 395.21 677.86 C 388.55 676.68 381.77 677.66 375.09 676.76 C 367.14 675.62 359.02 675.22 351.36 672.63 C 345.73 671.53 340.39 669.41 335.36 666.69 C 329.58 663.20 324.75 657.98 318.18 655.90 C 314.74 651.96 310.32 649.04 306.89 645.09 C 300.96 638.51 295.21 631.52 291.66 623.33 C 286.16 613.03 281.42 602.23 278.59 590.88 C 277.22 575.45 277.05 559.81 278.70 544.40 C 281.08 538.97 283.24 533.45 284.82 527.72 C 288.35 518.30 289.88 508.05 295.19 499.36 C 295.89 498.31 296.12 497.06 296.21 495.84 C 291.64 496.05 288.12 499.42 284.06 501.11 Z" />
<path fill="#6a205a" opacity="1.00" d=" M 407.41 536.48 C 412.50 534.28 418.18 536.53 422.50 539.43 C 426.07 541.97 430.14 545.17 430.25 549.98 C 430.59 555.77 431.34 562.52 427.31 567.30 C 422.47 572.92 415.43 576.70 407.98 577.23 C 402.67 577.80 396.10 578.32 392.52 573.49 C 387.12 568.22 387.69 560.22 388.53 553.36 C 388.99 549.36 392.27 546.64 395.18 544.26 C 399.03 541.34 402.95 538.40 407.41 536.48 Z" />
<path fill="#6a205a" opacity="1.00" d=" M 709.36 560.45 C 714.72 558.82 720.91 559.13 725.66 562.31 C 729.92 564.98 732.03 569.82 733.66 574.38 C 735.70 580.29 733.34 586.50 730.78 591.85 C 728.26 596.97 723.01 599.91 717.88 601.84 C 711.23 604.60 703.45 603.19 697.39 599.63 C 691.39 595.12 691.26 586.74 691.71 579.93 C 693.19 570.84 700.52 562.95 709.36 560.45 Z" />
<path fill="#6a205a" opacity="1.00" d=" M 539.38 609.21 C 546.33 607.78 554.03 609.02 559.87 613.16 C 564.74 617.33 568.99 623.31 568.41 630.05 C 568.51 636.73 562.71 641.13 558.26 645.24 C 554.45 648.96 548.77 648.11 543.94 647.96 C 534.95 647.66 525.81 642.21 522.54 633.67 C 520.78 626.27 522.17 617.39 528.42 612.44 C 531.69 610.39 535.66 609.98 539.38 609.21 Z" />
<path fill="#6a205a" opacity="1.00" d=" M 427.21 705.20 C 431.09 701.51 436.52 699.76 441.83 699.90 C 446.19 700.98 450.66 702.86 453.12 706.85 C 458.92 715.63 464.05 724.96 471.25 732.73 C 476.12 737.97 482.14 741.89 487.70 746.34 C 492.37 750.10 497.53 753.18 502.37 756.72 C 505.16 758.79 508.31 760.34 511.64 761.33 C 518.66 763.36 525.59 766.10 532.99 766.31 C 541.02 766.58 549.25 766.59 557.00 764.19 C 564.33 761.91 571.74 759.50 578.21 755.27 C 587.58 749.56 594.97 741.33 602.66 733.64 C 608.07 728.26 612.45 721.96 616.46 715.50 C 618.62 712.12 620.83 708.32 624.72 706.71 C 628.27 705.21 632.05 704.42 635.72 703.25 C 639.43 705.81 643.42 708.15 646.37 711.65 C 650.46 716.49 650.71 723.67 648.32 729.35 C 645.36 736.16 640.41 741.82 636.07 747.77 C 631.66 753.12 626.81 758.07 622.21 763.25 C 611.19 776.10 596.21 784.56 581.57 792.63 C 575.99 795.80 569.73 797.48 563.45 798.55 C 549.24 800.84 534.61 802.80 520.36 799.76 C 509.01 796.89 497.38 794.00 487.46 787.51 C 473.18 778.08 458.34 769.04 446.56 756.44 C 441.24 750.87 436.85 744.51 431.85 738.68 C 428.04 733.59 424.89 727.91 423.22 721.75 C 421.62 716.06 422.89 709.40 427.21 705.20 Z" />
</g>
<g id="#232323ff">
<path fill="#232323" opacity="1.00" d=" M 467.46 163.57 C 474.28 162.86 481.15 163.10 488.00 163.07 C 495.00 163.13 502.09 162.68 509.00 164.14 C 516.57 165.49 523.82 168.20 531.41 169.47 C 536.26 170.31 541.26 171.03 545.63 173.45 C 553.57 177.84 560.79 183.40 567.49 189.49 C 570.63 192.00 573.13 195.29 576.58 197.41 C 579.92 198.52 583.55 198.35 587.03 198.26 C 590.85 198.21 594.05 195.92 597.32 194.25 C 600.72 192.44 604.54 191.65 608.05 190.08 C 613.20 187.79 617.67 184.21 622.87 181.99 C 627.63 179.94 632.53 178.23 637.32 176.24 C 644.54 173.23 652.38 171.94 660.16 171.53 C 668.82 171.72 677.40 173.09 686.00 174.05 C 690.49 174.50 694.78 176.06 698.66 178.33 C 705.07 181.76 710.01 187.38 716.65 190.45 C 721.80 192.71 724.41 197.94 728.31 201.68 C 731.87 205.48 736.22 208.41 739.93 212.05 C 745.16 217.10 745.85 225.00 750.68 230.34 C 753.08 232.72 756.15 234.24 758.89 236.19 C 761.16 237.64 763.32 239.53 766.05 240.06 C 778.98 241.28 791.88 237.15 804.79 239.20 C 814.83 240.57 825.33 240.30 834.85 244.25 C 838.64 245.94 842.01 248.43 845.66 250.40 C 851.21 253.28 855.49 257.95 860.76 261.25 C 868.51 266.43 873.68 274.32 879.74 281.20 C 885.95 290.88 893.19 300.23 896.57 311.38 C 898.30 316.91 901.68 321.69 903.84 327.03 C 908.32 337.99 909.19 349.94 912.58 361.21 C 914.51 368.45 914.70 375.99 915.45 383.41 C 916.58 395.92 918.64 408.40 918.13 421.00 C 917.88 427.38 918.58 433.78 920.28 439.93 C 922.21 446.10 921.35 452.68 922.92 458.92 C 923.90 463.21 925.07 467.53 924.95 471.98 C 924.90 486.19 928.04 500.36 926.49 514.58 C 925.73 521.68 926.74 528.96 924.79 535.91 C 923.50 540.48 922.33 545.08 921.57 549.78 C 920.75 554.74 917.51 558.77 914.69 562.75 C 912.91 564.93 911.00 567.63 907.97 567.96 C 900.72 568.96 893.03 568.10 886.68 564.27 C 880.32 560.88 876.23 554.71 870.54 550.47 C 864.85 546.20 859.72 540.98 856.37 534.66 C 853.73 529.77 849.39 526.04 847.06 520.98 C 844.24 514.65 839.23 509.49 837.25 502.77 C 835.48 496.89 831.82 491.78 830.28 485.82 C 828.31 478.38 826.40 470.89 823.36 463.80 C 820.00 455.89 818.35 447.41 816.84 438.99 C 815.89 433.34 813.92 427.81 814.30 422.00 C 814.28 410.11 813.88 396.76 805.78 387.23 C 802.24 382.56 796.42 380.96 791.35 378.60 C 787.49 376.77 783.09 377.26 778.96 377.28 C 774.06 377.24 769.62 379.45 765.11 381.03 C 755.67 384.45 746.04 387.69 736.00 388.66 C 732.50 389.02 728.92 388.72 725.65 387.37 C 716.50 383.75 706.57 382.56 697.57 378.52 C 693.44 376.65 688.61 376.67 684.78 374.17 C 680.52 370.69 678.61 365.14 674.28 361.70 C 669.49 356.86 662.45 356.01 655.99 355.84 C 651.05 355.82 645.21 354.54 641.19 358.23 C 636.40 361.76 633.39 368.38 626.92 369.07 C 619.57 369.97 612.45 372.15 605.11 373.11 C 596.54 374.16 588.41 378.19 579.64 377.52 C 569.27 376.67 559.25 373.59 549.36 370.55 C 544.66 369.26 539.89 367.93 535.82 365.16 C 531.02 362.27 525.70 358.30 519.77 359.76 C 514.23 360.75 510.32 365.24 505.14 367.09 C 501.60 368.37 498.18 369.95 494.90 371.79 C 486.50 376.37 476.60 375.41 467.57 377.77 C 459.80 379.87 451.74 380.67 444.02 382.99 C 435.44 385.44 426.42 384.11 417.92 382.03 C 410.49 380.63 403.65 377.21 396.24 375.75 C 388.63 374.32 383.68 366.82 375.77 366.31 C 371.00 365.73 366.60 368.06 362.98 370.92 C 359.15 374.02 354.11 374.61 349.86 376.87 C 345.92 379.03 344.97 383.72 343.53 387.59 C 341.50 393.75 337.58 398.98 334.51 404.63 C 331.62 409.96 328.04 414.91 325.43 420.40 C 322.93 425.64 319.59 430.45 315.81 434.84 C 312.40 438.79 307.72 441.41 304.47 445.51 C 302.25 448.23 300.04 451.05 297.08 453.03 C 290.28 457.60 283.56 462.27 276.64 466.65 C 272.08 469.49 266.78 470.71 261.98 473.04 C 259.53 474.14 257.20 475.59 254.57 476.25 C 250.81 477.05 246.86 476.83 243.21 478.17 C 239.50 479.51 236.21 481.74 232.98 483.97 C 230.26 485.90 227.42 488.08 226.29 491.36 C 224.38 496.67 223.16 502.30 223.33 507.97 C 223.39 511.51 223.28 515.07 222.68 518.57 C 220.43 530.99 220.44 543.70 218.04 556.11 C 216.07 565.51 217.08 575.68 212.45 584.40 C 209.63 590.60 205.00 595.66 201.22 601.26 C 198.66 604.58 196.12 608.14 192.56 610.46 C 188.52 611.31 183.75 611.23 180.31 608.66 C 176.04 604.60 175.26 598.43 173.93 592.99 C 172.96 588.21 169.29 584.54 168.33 579.76 C 167.27 574.73 166.88 569.54 165.28 564.63 C 163.41 559.01 163.78 553.02 162.74 547.26 C 161.38 538.90 159.82 530.50 160.05 522.00 C 159.73 510.96 162.17 500.03 161.21 488.99 C 159.98 477.71 159.17 466.37 159.15 455.01 C 159.12 448.37 158.33 441.77 157.70 435.16 C 157.15 429.19 155.32 423.25 156.23 417.21 C 157.70 406.51 161.01 396.14 164.99 386.13 C 167.44 379.78 169.19 372.98 173.46 367.52 C 176.89 362.60 182.47 359.88 186.34 355.39 C 189.90 351.29 193.30 346.99 197.68 343.70 C 203.06 339.36 209.51 334.66 210.40 327.25 C 211.31 317.23 211.45 306.61 216.53 297.60 C 220.25 290.69 221.68 282.29 228.10 277.12 C 233.83 271.50 238.23 264.61 244.57 259.60 C 252.85 252.73 261.02 245.31 271.04 241.04 C 275.80 238.93 279.80 235.12 285.06 234.15 C 290.33 233.02 295.76 232.50 300.89 230.72 C 307.68 228.26 315.01 229.69 322.05 229.30 C 331.74 230.19 341.22 233.26 351.03 233.04 C 360.56 233.12 370.28 228.64 375.68 220.64 C 382.72 210.65 388.57 198.85 399.70 192.74 C 405.53 189.72 408.45 183.24 414.31 180.28 C 421.00 176.93 427.02 171.86 434.60 170.62 C 441.30 169.48 448.26 169.26 454.63 166.62 C 458.70 164.88 463.05 163.94 467.46 163.57 Z" />
</g>
<g id="#fcdbc8ff">
<path fill="#fcdbc8" opacity="1.00" d=" M 647.30 400.25 C 651.34 397.80 656.25 396.87 660.88 397.90 C 664.56 399.33 667.44 402.14 670.67 404.33 C 675.36 407.78 680.99 409.46 686.26 411.80 C 698.76 418.32 713.29 417.93 726.93 419.86 C 734.05 421.11 741.19 420.01 748.28 419.18 C 749.53 419.25 750.74 418.89 751.88 418.37 C 752.73 418.28 754.43 418.12 755.28 418.04 C 756.84 418.14 758.40 417.91 759.90 417.45 C 763.69 416.54 767.53 415.90 771.33 415.06 C 773.69 414.51 776.24 414.26 778.52 415.29 C 779.35 419.98 779.15 424.81 780.31 429.45 C 782.61 438.95 783.02 448.81 785.79 458.20 C 788.46 469.75 792.85 480.80 795.28 492.41 C 792.25 491.02 790.50 488.04 788.27 485.72 C 784.07 480.73 778.06 477.93 772.97 474.02 C 768.99 470.82 763.85 469.92 759.48 467.47 C 750.98 463.02 741.36 461.67 732.27 458.92 C 725.22 457.59 718.27 455.16 711.00 455.60 C 699.36 455.96 687.17 454.55 676.09 458.91 C 668.15 461.66 659.72 463.16 652.32 467.31 C 647.42 470.13 642.10 472.22 637.46 475.47 C 631.83 479.77 626.56 484.57 622.01 490.01 C 618.51 494.18 613.66 496.97 610.33 501.31 C 606.80 505.59 604.50 510.74 600.83 514.90 C 597.38 513.65 594.34 511.51 591.00 510.02 C 581.24 505.67 570.74 502.50 559.97 502.56 C 553.64 502.62 547.31 502.36 541.00 502.66 C 537.15 502.80 533.35 504.21 529.50 503.65 C 525.98 496.93 520.90 491.19 517.58 484.36 C 513.04 477.14 508.78 469.40 501.97 464.04 C 499.01 461.68 496.34 459.00 493.62 456.38 C 489.45 452.29 483.96 450.07 479.19 446.82 C 474.45 443.92 469.95 440.53 464.77 438.43 C 451.35 433.66 437.45 428.96 423.00 429.57 C 412.00 429.92 400.91 428.89 389.97 430.34 C 384.18 431.80 378.01 431.83 372.55 434.43 C 368.76 436.10 364.75 437.22 360.97 438.93 C 357.08 440.66 353.78 443.46 349.89 445.17 C 352.10 440.22 357.17 437.45 359.68 432.71 C 363.34 426.13 366.36 419.23 369.29 412.31 C 370.22 410.34 371.06 408.19 372.74 406.73 C 375.76 404.67 379.36 406.54 382.40 407.57 C 394.10 412.20 406.31 415.83 418.93 416.64 C 428.61 416.44 438.44 418.14 447.97 415.71 C 452.67 414.42 457.57 413.91 462.15 412.24 C 469.58 409.28 477.29 407.02 485.11 405.38 C 494.27 403.27 503.85 405.58 512.95 403.00 C 518.14 401.87 523.18 397.90 528.64 400.24 C 537.23 403.61 546.13 406.10 555.06 408.39 C 556.21 408.87 557.43 409.19 558.70 409.11 C 567.46 409.66 576.22 410.28 585.00 410.36 C 591.20 410.40 596.98 407.87 602.97 406.61 C 611.80 404.11 621.31 406.30 630.01 403.12 C 635.61 401.11 642.07 403.55 647.30 400.25 Z" />
<path fill="#fcdbc8" opacity="1.00" d=" M 284.06 501.11 C 288.12 499.42 291.64 496.05 296.21 495.84 C 296.12 497.06 295.89 498.31 295.19 499.36 C 289.88 508.05 288.35 518.30 284.82 527.72 C 283.24 533.45 281.08 538.97 278.70 544.40 C 277.05 559.81 277.22 575.45 278.59 590.88 C 281.42 602.23 286.16 613.03 291.66 623.33 C 295.21 631.52 300.96 638.51 306.89 645.09 C 310.32 649.04 314.74 651.96 318.18 655.90 C 311.89 663.30 306.58 671.96 305.15 681.72 C 303.79 690.55 303.93 699.63 305.07 708.48 C 306.03 723.50 312.45 738.17 323.49 748.50 C 333.10 758.36 345.58 765.50 359.20 767.90 C 368.70 769.49 378.22 767.05 387.36 764.59 C 394.45 762.57 401.92 761.22 408.26 757.23 C 413.28 754.06 418.58 751.10 422.56 746.59 C 425.28 743.54 428.41 740.88 431.85 738.68 C 436.85 744.51 441.24 750.87 446.56 756.44 C 458.34 769.04 473.18 778.08 487.46 787.51 C 497.38 794.00 509.01 796.89 520.36 799.76 C 534.61 802.80 549.24 800.84 563.45 798.55 C 569.73 797.48 575.99 795.80 581.57 792.63 C 596.21 784.56 611.19 776.10 622.21 763.25 C 626.81 758.07 631.66 753.12 636.07 747.77 C 639.98 751.36 642.75 755.90 645.79 760.20 C 655.46 772.26 669.10 780.67 683.73 785.33 C 696.27 788.96 710.23 787.97 721.88 781.98 C 739.56 773.86 752.91 757.27 757.65 738.47 C 759.62 730.70 763.04 723.18 763.24 715.06 C 763.39 710.01 763.72 704.97 763.39 699.93 C 772.05 696.43 781.28 693.63 788.72 687.71 C 798.71 680.84 806.84 671.70 814.11 662.09 C 817.09 658.33 820.25 654.70 822.77 650.59 C 826.30 645.87 827.25 639.89 829.48 634.54 C 832.69 622.95 836.46 611.18 835.84 599.01 C 835.96 591.96 834.69 585.00 834.53 577.98 C 834.29 572.63 833.03 567.29 833.91 561.94 C 838.25 564.94 841.15 569.45 844.84 573.14 C 848.57 577.14 853.55 579.71 857.18 583.82 C 859.58 586.57 862.58 588.71 865.98 590.07 C 872.73 592.91 878.85 597.21 885.97 599.17 C 894.52 601.47 903.59 603.19 912.39 601.17 C 916.19 600.23 919.10 597.46 922.23 595.27 C 926.52 592.22 930.94 589.34 935.21 586.25 C 938.16 584.23 941.18 581.76 944.94 581.67 C 950.28 581.45 955.64 581.72 960.99 581.63 C 963.78 581.73 966.80 581.47 969.34 582.88 C 973.08 584.94 977.38 585.72 981.05 587.96 C 984.64 589.87 987.42 592.91 990.15 595.87 C 994.76 600.91 999.33 605.99 1003.81 611.16 C 1007.25 614.93 1008.02 620.18 1010.15 624.67 C 1013.40 633.44 1016.86 642.50 1016.46 652.02 C 1016.37 657.02 1016.50 662.02 1016.37 667.03 C 1016.31 672.78 1012.99 677.70 1010.68 682.76 C 1008.64 686.85 1007.73 691.41 1005.50 695.42 C 1003.17 699.63 999.32 702.68 996.59 706.59 C 994.55 709.49 992.29 712.26 989.65 714.65 C 984.67 719.05 981.53 725.13 976.34 729.35 C 964.41 740.38 948.25 744.61 933.06 749.07 C 926.92 751.28 920.36 750.45 913.99 750.85 C 903.01 751.59 892.01 752.21 881.01 752.40 C 874.05 752.67 867.51 755.40 861.26 758.22 C 856.12 760.55 853.45 765.81 850.01 769.98 C 841.76 780.06 834.75 791.25 825.06 800.06 C 815.71 808.02 808.11 818.13 797.38 824.39 C 793.77 826.70 791.11 830.18 787.50 832.51 C 782.88 835.52 778.19 838.45 773.81 841.82 C 769.16 845.43 763.38 847.15 758.70 850.69 C 753.21 854.71 747.51 858.50 741.28 861.28 C 738.09 862.65 735.41 864.98 732.15 866.21 C 725.50 868.80 718.55 870.74 712.32 874.32 C 707.21 877.25 701.40 878.42 695.79 879.96 C 690.39 881.35 686.08 885.32 680.64 886.58 C 676.49 887.49 672.17 887.11 668.02 888.05 C 663.23 889.10 658.45 890.19 653.78 891.67 C 645.66 894.37 637.00 894.57 628.79 896.91 C 621.66 898.99 614.29 900.02 606.91 900.67 C 600.87 901.13 595.04 903.08 588.97 903.28 C 581.26 903.60 573.51 902.57 565.83 903.73 C 560.58 904.50 555.27 904.21 549.99 904.09 C 544.59 903.83 539.42 905.99 534.02 905.69 C 521.66 905.05 509.34 907.19 496.99 906.11 C 487.22 905.03 477.24 906.77 467.61 904.45 C 460.84 902.82 453.83 903.41 446.96 902.75 C 439.91 902.19 433.10 899.89 426.00 899.72 C 417.21 900.01 409.01 896.39 400.61 894.33 C 394.90 892.70 388.91 892.37 383.24 890.59 C 374.57 887.79 365.18 888.64 356.61 885.39 C 348.08 883.30 340.67 878.37 332.35 875.73 C 326.08 873.55 320.52 869.75 314.12 867.88 C 307.15 865.81 301.42 861.19 294.96 858.04 C 290.38 855.71 285.73 853.48 281.58 850.44 C 276.01 846.33 269.69 843.19 264.92 838.08 C 260.02 832.93 254.62 828.30 248.86 824.15 C 241.03 816.95 235.27 807.78 227.25 800.75 C 222.63 796.70 217.81 792.79 214.37 787.62 C 211.34 782.95 205.87 780.82 202.54 776.45 C 197.53 770.14 192.76 763.64 187.28 757.73 C 182.20 752.16 178.20 745.28 171.38 741.58 C 168.87 740.02 165.79 740.58 162.99 740.28 C 157.39 740.05 152.49 736.95 147.08 735.90 C 141.15 734.67 134.70 734.95 129.31 731.86 C 126.14 730.07 122.40 730.01 118.97 729.03 C 113.05 727.43 107.40 724.96 101.93 722.22 C 97.94 720.20 93.13 719.43 89.96 716.06 C 87.37 712.98 85.15 709.57 82.22 706.79 C 78.33 702.66 73.65 699.36 69.87 695.13 C 66.81 691.87 67.10 687.05 64.96 683.31 C 62.01 677.02 59.61 670.02 61.03 662.99 C 62.58 654.29 60.50 645.35 62.72 636.73 C 64.54 629.17 65.97 621.38 69.14 614.26 C 72.97 608.26 76.59 601.76 82.27 597.30 C 87.06 594.02 91.38 589.67 97.18 588.24 C 104.15 586.48 110.61 582.17 118.04 582.80 C 123.34 583.23 128.87 584.56 133.10 587.94 C 137.11 592.27 138.26 598.35 138.89 604.03 C 139.07 607.18 141.24 609.57 142.97 612.02 C 145.60 615.62 146.73 620.05 149.26 623.72 C 151.93 627.65 154.85 631.43 158.11 634.90 C 161.74 638.72 166.94 640.23 171.55 642.50 C 177.23 645.49 183.84 644.37 189.99 644.15 C 196.41 643.94 202.52 641.81 208.44 639.47 C 214.97 636.91 220.21 631.99 224.98 626.99 C 228.74 622.74 232.92 618.73 235.63 613.68 C 238.44 608.52 239.99 602.82 242.46 597.51 C 245.69 590.59 247.35 583.10 249.89 575.93 C 251.51 569.77 252.57 563.42 252.67 557.04 C 252.62 546.49 257.02 536.53 257.28 526.01 C 257.36 519.82 257.36 513.57 258.63 507.49 C 259.70 506.05 261.69 506.18 263.29 506.06 C 264.54 506.13 265.77 505.83 266.92 505.36 C 272.66 504.07 278.73 503.85 284.06 501.11 Z" />
<path fill="#fcdbc8" opacity="1.00" d=" M 539.89 525.48 C 555.34 523.03 571.37 526.12 585.61 532.34 C 589.00 533.86 592.55 535.40 595.16 538.14 C 596.11 542.07 594.73 546.05 594.52 550.00 C 594.20 556.33 593.49 562.65 593.60 569.00 C 593.74 577.86 593.08 586.82 594.76 595.58 C 595.88 600.38 599.38 604.08 601.73 608.29 C 604.31 612.55 604.92 617.61 606.85 622.15 C 610.60 631.46 617.32 639.08 622.27 647.71 C 628.55 659.17 638.07 668.34 647.30 677.40 C 644.32 686.44 636.72 693.46 635.72 703.25 C 632.05 704.42 628.27 705.21 624.72 706.71 C 620.83 708.32 618.62 712.12 616.46 715.50 C 612.45 721.96 608.07 728.26 602.66 733.64 C 594.97 741.33 587.58 749.56 578.21 755.27 C 571.74 759.50 564.33 761.91 557.00 764.19 C 549.25 766.59 541.02 766.58 532.99 766.31 C 525.59 766.10 518.66 763.36 511.64 761.33 C 508.31 760.34 505.16 758.79 502.37 756.72 C 497.53 753.18 492.37 750.10 487.70 746.34 C 482.14 741.89 476.12 737.97 471.25 732.73 C 464.05 724.96 458.92 715.63 453.12 706.85 C 450.66 702.86 446.19 700.98 441.83 699.90 C 439.58 696.73 439.70 692.72 439.14 689.05 C 438.47 682.97 436.15 677.21 435.55 671.12 C 439.01 669.72 442.34 668.00 445.92 666.90 C 453.07 664.74 459.20 660.32 465.58 656.59 C 474.79 651.04 481.50 642.51 489.27 635.27 C 493.25 631.60 496.86 627.57 500.41 623.49 C 505.10 618.31 507.02 611.07 512.66 606.67 C 516.70 603.51 519.51 599.15 521.47 594.46 C 525.93 585.95 527.02 576.28 528.97 567.01 C 530.97 557.70 531.67 548.19 532.77 538.75 C 533.40 534.63 533.83 530.35 535.71 526.57 L 536.46 526.38 C 537.64 526.26 538.79 525.94 539.89 525.48 M 539.38 609.21 C 535.66 609.98 531.69 610.39 528.42 612.44 C 522.17 617.39 520.78 626.27 522.54 633.67 C 525.81 642.21 534.95 647.66 543.94 647.96 C 548.77 648.11 554.45 648.96 558.26 645.24 C 562.71 641.13 568.51 636.73 568.41 630.05 C 568.99 623.31 564.74 617.33 559.87 613.16 C 554.03 609.02 546.33 607.78 539.38 609.21 Z" />
</g>
<g id="#ad7d8ff1">
<path fill="#ad7d8f" opacity="0.95" d=" M 555.06 408.39 C 555.77 406.94 558.96 407.27 558.70 409.11 C 557.43 409.19 556.21 408.87 555.06 408.39 Z" />
<path fill="#ad7d8f" opacity="0.95" d=" M 755.28 418.04 C 755.35 416.06 758.90 416.07 759.90 417.45 C 758.40 417.91 756.84 418.14 755.28 418.04 Z" />
<path fill="#ad7d8f" opacity="0.95" d=" M 748.28 419.18 C 747.97 417.36 751.12 416.94 751.88 418.37 C 750.74 418.89 749.53 419.25 748.28 419.18 Z" />
<path fill="#ad7d8f" opacity="0.95" d=" M 263.29 506.06 C 263.02 504.22 266.22 503.89 266.92 505.36 C 265.77 505.83 264.54 506.13 263.29 506.06 Z" />
<path fill="#ad7d8f" opacity="0.95" d=" M 536.46 526.38 C 535.92 524.50 539.21 523.86 539.89 525.48 C 538.79 525.94 537.64 526.26 536.46 526.38 Z" />
<path fill="#ad7d8f" opacity="0.95" d=" M 308.33 538.96 C 307.20 537.53 307.50 536.62 309.24 536.25 C 309.31 537.27 309.01 538.18 308.33 538.96 Z" />
</g>
<g id="#ffffffff">
<path fill="#ffffff" opacity="1.00" d=" M 395.03 456.81 C 406.65 456.16 418.60 454.10 429.96 457.68 C 445.39 460.54 460.65 466.02 472.94 476.01 C 479.96 480.57 484.94 487.37 490.46 493.52 C 494.06 497.70 495.01 503.30 497.01 508.29 C 498.85 513.17 501.62 517.88 501.86 523.21 C 501.73 524.25 502.03 525.15 502.76 525.93 C 503.83 530.19 503.36 534.65 503.46 539.00 C 503.83 553.13 501.41 567.28 496.67 580.58 C 494.38 590.04 487.81 597.50 481.83 604.85 C 471.63 616.25 461.98 628.56 448.95 636.91 C 440.02 642.19 430.04 645.31 420.13 648.18 C 410.34 650.94 400.07 650.37 390.02 650.41 C 383.98 650.50 378.02 649.31 372.00 649.21 C 366.31 649.11 361.05 646.78 355.66 645.27 C 348.30 643.14 340.98 639.97 335.37 634.60 C 330.78 630.54 324.92 627.29 322.76 621.19 C 320.06 614.15 316.87 607.32 313.35 600.65 C 309.14 591.56 305.69 581.87 305.48 571.74 C 304.38 560.78 304.90 549.49 308.33 538.96 C 309.01 538.18 309.31 537.27 309.24 536.25 C 309.92 528.58 313.24 521.58 316.92 514.95 C 323.94 501.72 332.95 489.02 345.64 480.69 C 351.29 477.06 356.19 472.38 361.90 468.85 C 372.05 462.82 383.30 458.46 395.03 456.81 M 407.41 536.48 C 402.95 538.40 399.03 541.34 395.18 544.26 C 392.27 546.64 388.99 549.36 388.53 553.36 C 387.69 560.22 387.12 568.22 392.52 573.49 C 396.10 578.32 402.67 577.80 407.98 577.23 C 415.43 576.70 422.47 572.92 427.31 567.30 C 431.34 562.52 430.59 555.77 430.25 549.98 C 430.14 545.17 426.07 541.97 422.50 539.43 C 418.18 536.53 412.50 534.28 407.41 536.48 Z" />
<path fill="#ffffff" opacity="1.00" d=" M 685.46 484.64 C 692.16 482.87 699.15 483.70 706.00 483.49 C 714.42 483.79 723.17 482.39 731.23 485.55 C 737.28 487.91 743.79 488.83 749.82 491.21 C 763.05 498.19 776.00 506.94 784.27 519.70 C 787.28 524.90 792.38 528.47 795.23 533.78 C 799.70 541.87 804.21 550.15 805.88 559.35 C 806.96 565.93 809.78 572.23 809.38 579.00 C 809.01 590.96 810.55 603.44 806.16 614.86 C 803.97 621.02 802.79 627.66 799.19 633.23 C 792.48 643.93 783.79 653.17 776.39 663.37 C 773.28 667.99 767.78 669.74 763.05 672.16 C 758.20 674.32 753.54 677.48 748.07 677.63 C 739.63 678.06 731.08 679.29 722.69 677.72 C 715.18 676.37 707.63 675.24 700.12 673.92 C 694.70 673.03 689.91 670.22 684.77 668.46 C 677.23 665.89 670.56 661.42 663.98 657.05 C 655.46 651.31 648.41 643.55 643.46 634.55 C 640.45 628.69 636.11 623.63 633.33 617.64 C 629.40 609.30 624.42 601.29 622.52 592.15 C 620.94 585.55 621.70 578.72 621.53 572.00 C 621.63 565.79 621.01 559.48 622.54 553.40 C 624.20 546.63 624.43 539.52 626.99 532.98 C 630.04 524.98 635.29 518.11 640.14 511.14 C 644.77 504.08 652.26 499.76 658.98 494.97 C 666.86 489.45 676.29 487.04 685.46 484.64 M 709.36 560.45 C 700.52 562.95 693.19 570.84 691.71 579.93 C 691.26 586.74 691.39 595.12 697.39 599.63 C 703.45 603.19 711.23 604.60 717.88 601.84 C 723.01 599.91 728.26 596.97 730.78 591.85 C 733.34 586.50 735.70 580.29 733.66 574.38 C 732.03 569.82 729.92 564.98 725.66 562.31 C 720.91 559.13 714.72 558.82 709.36 560.45 Z" />
</g>
<g id="#d1abacf3">
<path fill="#d1abac" opacity="0.95" d=" M 501.86 523.21 C 503.56 523.61 503.86 524.51 502.76 525.93 C 502.03 525.15 501.73 524.25 501.86 523.21 Z" />
<path fill="#d1abac" opacity="0.95" d=" M 305.15 681.72 C 306.42 687.74 305.55 693.89 306.01 699.98 C 306.22 702.84 305.68 705.69 305.07 708.48 C 303.93 699.63 303.79 690.55 305.15 681.72 Z" />
</g>
<g id="#febfadff">
<path fill="#febfad" opacity="1.00" d=" M 318.18 655.90 C 324.75 657.98 329.58 663.20 335.36 666.69 C 340.39 669.41 345.73 671.53 351.36 672.63 C 359.02 675.22 367.14 675.62 375.09 676.76 C 381.77 677.66 388.55 676.68 395.21 677.86 C 401.46 678.96 407.81 678.20 414.09 677.74 C 421.72 677.36 428.15 672.51 435.55 671.12 C 436.15 677.21 438.47 682.97 439.14 689.05 C 439.70 692.72 439.58 696.73 441.83 699.90 C 436.52 699.76 431.09 701.51 427.21 705.20 C 422.89 709.40 421.62 716.06 423.22 721.75 C 424.89 727.91 428.04 733.59 431.85 738.68 C 428.41 740.88 425.28 743.54 422.56 746.59 C 418.58 751.10 413.28 754.06 408.26 757.23 C 401.92 761.22 394.45 762.57 387.36 764.59 C 378.22 767.05 368.70 769.49 359.20 767.90 C 345.58 765.50 333.10 758.36 323.49 748.50 C 312.45 738.17 306.03 723.50 305.07 708.48 C 305.68 705.69 306.22 702.84 306.01 699.98 C 305.55 693.89 306.42 687.74 305.15 681.72 C 306.58 671.96 311.89 663.30 318.18 655.90 Z" />
<path fill="#febfad" opacity="1.00" d=" M 647.30 677.40 C 656.09 679.94 661.99 687.88 670.08 691.88 C 677.98 695.50 686.05 699.70 694.96 699.79 C 701.64 699.88 707.81 702.83 714.40 703.49 C 726.24 704.86 738.18 704.45 750.06 704.17 C 754.92 704.22 758.78 700.87 763.39 699.93 C 763.72 704.97 763.39 710.01 763.24 715.06 C 763.04 723.18 759.62 730.70 757.65 738.47 C 752.91 757.27 739.56 773.86 721.88 781.98 C 710.23 787.97 696.27 788.96 683.73 785.33 C 669.10 780.67 655.46 772.26 645.79 760.20 C 642.75 755.90 639.98 751.36 636.07 747.77 C 640.41 741.82 645.36 736.16 648.32 729.35 C 650.71 723.67 650.46 716.49 646.37 711.65 C 643.42 708.15 639.43 705.81 635.72 703.25 C 636.72 693.46 644.32 686.44 647.30 677.40 Z" />
</g>
</svg>
