<svg xmlns="http://www.w3.org/2000/svg" viewBox="0 0 1080 1080"><g fill="#6a205a"><path d="M453.74 147.67c12.02-4.14 24.71-5.67 37.23-7.52 11.22-1.39 22.14 2.11 33.3 2.35 6.87.25 13.41 2.53 19.98 4.32 3.24.94 6.56 1.74 9.54 3.37 6.06 3.38 12.91 5.28 18.5 9.51 5.15 3.97 10.7 7.37 16.19 10.85 3.33 2.21 6.04-1.76 8.54-3.45 9.69-8.16 23.26-6.66 34.27-11.86 6.04-3.02 12.92-1.28 19.33-2.46 5.3-.94 10.64.01 15.9.82 7.11 1.17 14.65.39 21.33 3.6 15.01 6.72 30.31 14.06 41.89 26.06 5.98 6.02 13.39 11 17.22 18.8 1.67 2.98 2.91 6.29 5.26 8.82 7.31 2.14 15.3 1.11 22.51-1.08 3.66-1.14 7.51-.33 11.21.15 6.68 1.11 13.55 1.08 20.09 3.02 5.67 1.65 11.49 2.87 17.01 5.05 4.34 1.61 7.31 5.42 11.4 7.48 2.79 1.41 5.34 3.3 7.09 5.94 2.09 3.36 6.13 4.46 8.9 7.11 3.63 3.39 7.89 6.25 10.45 10.63 2.58 4.3 6.78 7.26 9.5 11.45 3.39 5.11 6.1 10.62 8.94 16.04 1.97 3.91 5.19 7.07 6.75 11.2 2.69 7.03 5.06 14.18 7.91 21.14 2.05 4.76 1.63 10.24 4.21 14.81 4.08 7.2 3.97 15.76 6.74 23.42 3.25 8.82 3.87 18.28 4.51 27.57 1.88 7.27 1.02 14.8 1.74 22.21.74 12.01-.02 24.19 2.47 36.03.29 5.72.68 11.42 1.89 17.04.46 12.29.87 24.59 1.49 36.88.31 8.84-2.09 17.46-2.53 26.23 5.37 1.83 10.93 2.94 16.53 3.84 6.79 1.06 12.14 5.67 17.91 9.03 5.26 3.35 11.22 5.81 15.54 10.45 3.42 3.59 6.28 7.69 9.91 11.1 3.61 3.36 5.54 7.97 7.73 12.28 2.7 5.42 7.04 9.96 8.95 15.8 1.07 3.39 1.93 6.85 2.92 10.28 1.91 6.5.65 13.33 1.22 19.97 1.18 11.66-.81 23.36-3.91 34.58-3.76 9.83-10.32 18.18-15.61 27.19-3.74 5.48-7.57 11.01-12.52 15.49-2.61 2.43-4.13 5.76-6.67 8.25-3.81 3.65-7.91 7.15-12.77 9.32-5.14 2.28-9.15 6.39-14.22 8.78-4.59 2.27-8.38 5.84-13.02 8-7.16 2.73-14.91 3.29-22.5 3.4-7.4.05-14.56 2.51-21.98 2.18-8.16-.39-16.44.62-24.46-1.26-2.1-.53-3.28 1.81-4.22 3.26-3.42 6.65-8.87 11.89-14.02 17.19-3.19 3.5-5.22 7.96-8.95 10.99-5.26 4.4-10.26 9.1-14.71 14.32-3.43 4.07-7.96 6.98-12.57 9.53-3.63 1.9-5.62 5.63-8.64 8.22-4.52 3.5-9.63 6.34-13.52 10.58-1.49 1.59.27 3.48 1.25 4.79 4.22 4.8 8.28 9.73 12.21 14.78 1.98 2.45 2.75 5.55 3.58 8.53 1.19 4.57 4.52 8.1 6.94 12.04 3.73 5.42 5.9 11.78 10.17 16.86 3.56 4.06 3.06 10.08 1.78 14.95-2.59 4.91-7.57 8.29-12.93 9.57-10.93-4.66-17.85-14.95-23.12-25.12-2.45-4.83-3.7-10.15-6.1-14.99-3.06-6.29-10.02-9.74-12.39-16.47-1.52-3.24-2.45-8.86-7.26-7.92-9 1.78-16.04 8.24-24.3 11.83-6.83 2.96-13.67 6.04-20.89 7.92-10.97 2.67-21.2 7.57-31.85 11.21-7.92 2.65-16.25 3.69-24.33 5.71-5.82 1.45-11.74 2.51-17.71 3.05-12.35 1.03-24.59 3.31-37 3.61-8.14.75-16.23 2.01-24.29 3.29-1.63 4.59-2.18 9.49-1.54 14.33.81 6.65-.36 13.31 0 19.98.59 10.72-1.25 21.36-1.24 32.08-.6 9.73.84 20.44-4.82 29.02-2.77 3.32-6.41 6.98-11.08 6.83-4.92.2-9.7-2.18-13-5.74-4.42-7.61-3.99-16.66-3.58-25.12.45-7.01 1.97-13.91 2.04-20.94.16-9.69.84-19.37.81-29.06.04-7.12.56-14.3-.83-21.33-10.06-1.73-20.29-2.14-30.48-2.08-9-.49-17.98-1.26-26.99-1.55-9.38-.7-18.68-2.23-28.08-2.68-6.07-.37-12.21-.49-18.12-2.07-6.22-1.7-12.81-1.19-18.99-3.04-12.04-3.52-24.58-5.28-36.35-9.68-5.93-2.38-12.04-4.22-18.19-5.92-6.97-1.97-12.74-6.75-19.77-8.55-6.48 7.96-11.93 16.71-16.46 25.9-3.36 6.73-3.59 14.49-6.64 21.34-3.23 7.32-7.07 14.86-13.65 19.74-5.35.73-11.47.55-15.99-2.74-4.13-2.98-3.71-8.74-3.67-13.25 1.19-11.54 8.07-21.33 12.09-31.96 1.1-3.03 2.65-5.87 4.47-8.53 3.74-5.33 4.63-12.14 8.83-17.22 1.27-2.42 5.01-4.78 3.01-7.73-1.96-2.2-4.81-3.28-7.19-4.94-3.3-1.92-5.46-5.19-8.47-7.46-3.28-2.14-7.68-2.53-10.26-5.72-5.16-6.82-11.77-12.34-18.27-17.82-2.87-2.9-4.35-6.86-7.15-9.83-2.58-3.2-6.07-5.39-9.51-7.53-3.23-1.88-4.48-5.56-6.49-8.48-3.78-5.25-9.71-8.24-14.18-12.77-2.93-2.89-4.17-7.02-7.1-9.89-2.86-2.82-5.8-5.57-8.26-8.75-2.38-2.89-4.64-6.08-7.9-8.04-4.81.08-9.65.85-14.44-.04-6.88-1.39-14.04-1.97-20.4-5.18-5.97-3.07-12.88-3.21-18.86-6.22-7.4-3.69-15.3-6.85-21.46-12.53-6.23-5.76-13.11-10.98-17.85-18.13-4.1-6.21-9.68-11.56-12.26-18.69-2.01-5.13-4.23-10.29-5-15.79-1.46-11.99-.59-24.08.08-36.09 1.39-9.74 2-20.17 7.65-28.59 5.87-9.57 10.12-20.76 19.38-27.68 4.15-3.14 7.42-7.41 12.11-9.83 5.4-2.86 10.6-6.12 16.12-8.75 6.82-2.6 13.95-4.34 21.05-6 3.85-.97 7.98-.07 11.76-1.3 1.12-3.77.1-7.75.16-11.6-.14-12.01.81-24.02.61-36.03-.64-6.97-3.49-13.49-4.66-20.36-1.79-12.47-.57-25.07-.46-37.59-.15-8.43.93-16.81 2.52-25.07.53-8.46 3.55-16.5 7.22-24.04 3.17-6.54 7.93-12.11 11.44-18.45 1.92-3.34 3.43-7.04 6.38-9.64 6.88-5.79 12.3-13.06 19.02-19.01 4.75-3.71 1-10.32 2.88-15.23 4.41-11.75 7.85-23.94 13.84-35.03 3.11-5.69 8.39-9.68 12.07-14.94 2.98-3.94 5.4-8.59 9.77-11.19 5.73-3.46 10.82-7.85 15.81-12.27 3.02-2.68 7.28-3.12 10.52-5.46 3.21-2.27 6.62-4.3 10.36-5.58 6.32-2.17 12.1-5.67 18.52-7.56 6.97-2.13 14.03-4.39 21.39-4.52 5.82-.02 11.74-.52 17.49.66 6.78 1.88 13.69 3.52 20.73 3.96 3.44.27 4.87-3.56 6.8-5.72 3.86-4.75 5.08-11.13 9.4-15.55 4.22-4.2 9.82-6.72 13.85-11.15 3.43-3.75 8.01-6.05 12.13-8.92 5.29-4.23 11.88-6.24 18.12-8.64 6.38-1.56 11.98-5.18 18.27-6.99m31.69 24.83c-5.46.17-10.95.82-16.06 2.84-5.6 2.16-11.62 2.59-17.51 3.47-6.17.81-11.03 5.01-16.53 7.53-4.16 1.92-7.29 5.32-10.24 8.71-2.92 3.67-8.01 4.46-10.95 8.09-6.77 6.51-10.96 15.01-16.59 22.42-2.86 3.75-7.36 5.71-11.64 7.34-8.14 2.71-16.8.97-24.99-.58-10.16-1.33-20.84-2.65-30.77.66-5.75 1.71-12.13 1.48-17.33 4.82-5.36 3.43-11.49 5.48-16.55 9.39-8.33 6.22-16.76 12.57-23.12 20.9-1.7 2.3-3.86 4.18-5.91 6.15-4.56 4.43-5.87 10.91-8.71 16.39-4.33 8.43-5.37 17.99-5.78 27.32-1.47 8.57-10.14 12.49-15.66 18.19-3.84 3.81-6.56 8.77-11.3 11.63-8.5 5.4-10.73 15.91-14.39 24.6-3.38 11.43-8.9 23.25-6.16 35.41 2.56 15.48 1.88 31.24 3.19 46.82 2 10.05.48 20.26-.3 30.35-.69 8.37.74 16.7 2.07 24.94 1.08 6.37.48 13.01 2.74 19.17 1.25 3.5 1.63 7.2 2.16 10.86.66 4.61 4.08 8.19 5.1 12.7 1.26 5.18 2.08 11.17 6.46 14.77 3.38 1.64 7.67 1.95 11.14.44 4.66-4.78 8.42-10.37 12.32-15.78 3.64-4.99 6.75-10.74 7.04-17.04.6-11.1 3.65-21.91 4.13-33.03.47-7.69 2.51-15.21 2.52-22.93.06-6.52.52-13.5 4.11-19.14 3.26-3.22 7.39-5.4 11.26-7.78 4.77-3.12 10.94-1.24 15.85-3.99 5.73-3.23 12.35-4.58 17.82-8.3 6-3.98 12.05-7.88 17.87-12.12 3.57-2.45 5.03-6.92 8.67-9.3 8.19-5.35 12.74-14.42 17.26-22.77 5.32-9.79 12.31-18.82 15.49-29.64 1.21-4.48 6.04-5.69 9.89-6.95 5.12-1.43 8.48-6.59 14.05-6.83 5.74-1.07 10.74 2.43 15.21 5.49 4.13 3.05 9.43 3.21 14.14 4.86 7.28 2.6 14.86 4.44 22.53 5.44 7.65.92 14.74-2.7 22.16-3.8 4.74-.66 9.37-1.91 14.07-2.81 7.17-1.13 14.83-1.17 21.24-5.03 3.48-2.14 7.53-3 11.12-4.89 3.28-2.15 6.4-5.02 10.53-5.26 5.74-1.08 10.74 2.43 15.21 5.49 4.13 3.05 9.43 3.2 14.14 4.86 7.28 2.6 14.85 4.44 22.53 5.44 7.97.93 15.33-2.96 23.08-3.97 5.71-.76 11.22-2.64 16.98-3.13 2.34-.37 5.03-.29 6.92-1.96 3.43-2.94 5.87-7.01 9.95-9.17 4.95-2.95 10.81-.53 16.16-.68 4.75-.12 8.99 2.41 12.56 5.3 3.62 3.38 5.34 8.48 9.53 11.31 3.22 1.41 6.82 1.69 10.08 3.02 8.68 3.39 17.81 5.37 26.63 8.32 4.23 1.54 8.74.45 13.05-.12 9.28-1.15 17.79-5.28 26.55-8.28 4.35-.95 8.88-1.33 13.33-1.09 4.14 1.05 7.97 3.1 11.88 4.81 5.49 3.32 8.92 9.27 10.61 15.34 2.85 8.3.87 17.21 2.41 25.72 1.4 8.31 2.85 16.65 5.18 24.75 3.22 8.39 6.2 16.89 8.45 25.59 1.29 5.27 4.44 9.82 6.03 15 1.77 5.98 6.15 10.61 8.73 16.21 2.14 4.6 6.05 8.01 8.48 12.44 3.12 5.63 7.49 10.55 12.79 14.23 4.98 3.33 7.99 9.02 13.56 11.56 6.33 3.75 14.27 5.18 21.33 2.93 3.05-2.68 5.1-6.3 7.37-9.63 2.85-4.14 2.07-9.47 3.86-14.01 2.97-7.84 2.32-16.35 2.83-24.56.61-8.67-.26-17.34-1.07-25.97-.54-5.62.31-11.38-1.25-16.88-1.35-4.61-2.01-9.37-2.15-14.16-.21-6.42-3.11-12.45-2.78-18.93.3-12.75-1.21-25.44-2.72-38.08-.61-8.26-1.33-16.55-3.68-24.52-2.41-11.94-4.61-24.35-11.06-34.89-2.38-4.06-2.88-8.87-5.11-12.99-2.65-4.9-5.89-9.45-8.76-14.22-3.19-5.33-7.72-9.64-11.47-14.56-4.15-5.28-10.25-8.35-15.23-12.7-3.88-3.33-8.56-5.49-12.9-8.13-7.84-4.66-17.24-4.92-26.07-5.84-10.99-1.42-22.08-.13-33.06.71-3.06.21-6.28-.17-8.81-2.02-4.22-3.03-9.38-5.21-12.06-9.92-2.54-3.48-3.14-7.94-5.51-11.49-5.19-5.49-11.91-9.48-16.26-15.79-1.91-2.87-5.07-4.39-7.97-6.04-5.67-3.18-10.22-8.05-16.1-10.89-4.57-2.24-9.74-2.54-14.7-3.22-5.85-.68-11.7-1.64-17.6-1.71-13.26.79-25.68 5.96-37.45 11.79-4.63 2.56-8.97 5.8-14.25 6.95-4.87 1.08-8.6 5.48-13.81 5.18-3.38-.27-7.44.48-10.09-2.08-8.77-8.34-18-16.53-29.09-21.64-4.58-1.49-9.42-1.85-14.06-3.08-8.53-1.81-16.99-4.74-25.81-4.5-7-.01-13.99-.24-20.98.17m158.64 207.79c-3.31.44-5.59 3.82-9.04 3.56-4-.19-8.02.03-11.86 1.2-7.83 2.3-16.16.83-23.99 3.04-5 1.24-9.89 3.43-15.15 3.14-5.93-.21-11.86-.37-17.77-.8-10.57-1.17-20.96-3.9-30.78-7.98-2.39-.92-5.16-2.03-7.54-.44-7.05 3.79-15.18 3.99-22.99 4.13-9.27.23-18.35 2.58-26.99 5.83-5.91 2.24-12.19 3.15-18.3 4.65-7.48 1.34-15.11.03-22.64-.05-11.72-.96-23.15-4.21-33.99-8.64-2.8-1.28-6.68-1.28-8.21 1.87-4.03 7.98-6.64 16.78-11.94 24.1-2.81 3.19-6.36 5.82-8.09 9.83 4.27-2.73 8.15-6.24 13.07-7.81 5.06-1.59 9.79-4.25 15.08-5.1 5.42-.86 10.76-2.45 16.31-2.34 9.54-.06 19.1-.4 28.64-.08 11.2 1.66 22.31 4.51 32.68 9.12 5.81 3 11.04 6.98 16.79 10.09 5.09 2.7 8.6 7.4 13.05 10.94 6.59 4.89 10.49 12.35 14.88 19.09 2.48 6.21 7.76 10.69 10.07 17 4.9-.51 9.68-1.97 14.63-2.05 9.41-.26 18.9.4 28.06 2.63 7.15 2.51 14.38 5.09 20.71 9.36 2.74-4.17 5.3-8.46 8.29-12.46 2.77-3.91 7.15-6.23 10.19-9.89 4.24-5.06 9.16-9.49 14.39-13.5 3.48-2.31 7.43-3.79 11-5.97 6.51-3.97 14.06-5.52 21.22-7.88 10.49-4.25 22.07-3.11 33.14-3.36 5.1-.28 10.11.79 14.94 2.39 8 1.78 16.05 3.6 23.78 6.36 5.39 3.14 11.79 4.3 16.66 8.33 3.97 3.05 8.72 5.14 12.02 9.03 3.01 3.54 5.99 7.14 9.49 10.24-2.46-4.49-4.45-9.26-5.48-14.29-2.32-10.61-6.86-20.68-8.09-31.54-.85-7.07-2.73-13.97-3.36-21.07-.34-1.89-.22-4-1.32-5.65-2.1-1.78-4.84-.54-7.1.11-5.58 1.91-11.54 1.93-17.3 2.93-5.36.82-10.71 2.64-16.19 1.79-9.52-1.37-19.19-1.7-28.62-3.61-7.45-1.46-14.17-5.06-21.12-7.92-4.84-2.13-8.51-6.11-13.09-8.63-2.64-.75-5.49-.05-8.14.3M423.5 431.85c-3.36.38-6.74.44-10.1.84-8.01 1.13-15.39 4.66-22.61 8.12-7.97 4.01-14.43 10.32-21.83 15.19-12.22 9.57-20.37 23.3-26.61 37.27-2.98 11.37-6.79 22.87-6.04 34.79.57 8.17.75 16.62 4.34 24.16 3.03 9 8.36 16.97 11.42 25.95 1.88 5.62 7.34 8.51 11.45 12.3 7.39 6.95 17.73 8.85 27.03 11.99 9.47 1.31 19.1 1.79 28.68 2.1 7.33-.72 14.88-.6 21.88-3.2 9.13-2.54 18.19-5.85 26.13-11.11 4.66-3.63 8.8-7.87 13.11-11.88 8.21-9.84 17.74-18.72 23.93-30.09 6.32-16.06 9.4-33.44 8.19-50.71-1.11-9.92-5.58-18.92-8.9-28.2-1.8-5.08-6.47-8.17-9.68-12.26-3.61-4.8-8.95-7.7-13.57-11.36-10.19-6.68-21.97-10.5-33.81-13.05-7.53-1.8-15.36-1.44-23.01-.85m250.91 24.92c-8.22 1.88-16.43 4.63-23.68 8.99-4.97 4.02-11.02 6.83-15.08 11.88-6.21 8.84-13.46 17.54-15.64 28.42-.93 5.69-2.23 11.32-3.11 17.03-.78 6.94-.29 13.94-.29 20.91-.07 9.07 3.9 17.5 8.04 25.35 2.31 4.85 4.63 9.73 7.68 14.18 3.8 5.59 6.71 11.82 11.21 16.93 6.09 6.5 13.42 11.72 21.31 15.83 4.8 3.4 10.56 4.69 15.9 6.95 5.19 2.31 10.96 2.52 16.47 3.65 6.57.92 13.07 3.19 19.78 2.28 7.2-.99 15.08.2 21.59-3.7 3.21-1.95 6.66-3.42 10.09-4.93 3.36-1.47 5.49-4.59 7.51-7.49 2.64-3.92 6.14-7.15 8.93-10.96 4.73-6.41 10.35-12.49 12.74-20.26 1.01-3.55 2.37-6.98 3.62-10.44 2.34-7.9 2.07-16.23 2.08-24.38-.05-4.9.38-9.86-.71-14.68-1.59-7.05-2.84-14.27-6.13-20.78-3.08-6.11-5.77-12.66-10.75-17.52-3.5-3.58-5.72-8.17-9.22-11.76-5.43-6.76-12.65-11.79-20.11-16.07-3.39-1.99-6.73-4.28-10.69-4.9-6.84-1.15-12.86-5.24-19.91-5.5-10.53-.53-21.19-.71-31.63.97M314.1 473.11c-6.06 1.77-12.46 1.78-18.52 3.54-1.3 5.7-1.29 11.58-1.62 17.4-.35 8.8-3.59 17.17-4.07 25.96-.75 16.91-6.93 32.96-13.57 48.34-1.97 4.67-5.01 8.78-8.66 12.28-3.69 4.62-8.11 8.6-13.05 11.83-8.74 4.86-18.84 6.21-28.68 6.64-3.59.17-6.73-1.8-9.94-3.08-4.02-1.68-8.27-3.39-11.04-6.93-3.88-4.96-8.16-9.83-10.24-15.87-1.21-3.78-5.51-5.97-5.55-10.18-.41-5.23-1.5-10.95-5.46-14.71-4.21-3.05-9.59-4.13-14.71-4.22-6.08-.19-11.24 3.51-16.98 4.88-5.54.99-9.03 5.76-13.83 8.27-4.02 3.33-6.39 8.21-9.61 12.28-4.73 7.34-5.56 16.34-7.51 24.67-1.62 5.85.14 11.87-.68 17.78-.37 3.9-1.38 7.9-.36 11.79 1.07 4.07 3.05 7.82 4.21 11.86.93 2.88 1.53 6.08 3.76 8.32 4.37 4.65 9.65 8.38 13.67 13.39 2.19 2.41 3.7 5.64 6.76 7.11 4.81 2.36 9.88 4.14 14.71 6.48 5.98 2.97 12.77 3.6 18.94 6.08 3.5 1.39 7.2 2.19 10.96 2.4 5.06.24 9.51 2.88 14.28 4.28 3.48 1.01 7.24.23 10.68 1.37 7.14 4.09 10.89 11.73 16.72 17.25 4.08 4.95 7.95 10.08 11.97 15.08 2.17 2.51 5.4 3.79 7.59 6.3 2.47 2.84 4.37 6.19 7.29 8.65 5.23 4.44 10.35 9.08 14.64 14.47 3.89 4.42 7.21 9.5 12.17 12.84 5.49 3.74 10.11 8.54 14.86 13.15 3.18 3.31 7.62 4.91 11.12 7.83 4.39 3.6 9.68 5.75 14.63 8.45 4.32 2.28 8.28 5.27 12.92 6.94 3.85 1.36 7.67 2.85 11.26 4.84 4.7 2.63 10.14 3.49 14.85 6.13 4.31 2.39 9.02 3.87 13.69 5.4 8.35 2.87 17.35 2.79 25.81 5.22 4.07 1.25 8.37 1.42 12.49 2.46 6.58 1.83 13.07 4.4 19.95 4.85 5.15.25 10.29.83 15.34 1.94 8.59 1.96 17.53.74 26.13 2.7 6.43 1.45 13.03 1.03 19.56 1.04 9.37.41 18.78.76 28.13-.19 5.87-.64 11.87 1.12 17.64-.64 5.29-1.63 10.81-.36 16.22-.62 4.7-.11 9.33-1.24 14.05-.94 6.2.29 12.49.56 18.6-.78 6.85-1.59 13.94-1.55 20.79-3.09 6.43-1.38 12.79-3.17 19.33-4.02 8.38-1.11 16.25-4.51 24.61-5.77 3.35-.52 6.81-.32 10.11-1.19 3.55-1.2 6.63-3.46 10.17-4.69 5.57-2.24 11.76-2.82 16.93-6.05 6.67-3.85 14.42-5.22 21.15-8.95 7.08-3.73 14.25-7.44 20.59-12.39 2.13-1.7 4.62-2.83 7.09-3.94 4.44-1.95 7.85-5.53 12.02-7.94 3.73-2.16 7.2-4.74 10.3-7.73 3.05-3.07 7.25-4.6 10.36-7.59 3.39-3.3 7.44-5.89 10.48-9.55 3-3.66 6.89-6.42 10.16-9.81 7.94-7.88 14.11-17.26 20.95-26.05 2.87-3.74 5.66-8 10.28-9.73 4.85-1.85 9.8-3.81 15.02-4.25 13.06-.2 26.08-1.24 39.13-1.84 7.73-.21 15.01-3.14 22.26-5.55 5.79-2.38 12.02-3.99 17.16-7.71 5-3.6 10.17-7.27 13.57-12.52 2.99-4.64 7.88-7.58 10.84-12.24 3.03-4.57 7.73-7.96 9.84-13.14 2.1-4.66 3.49-9.62 5.87-14.16 1.4-2.65 2.54-5.49 2.62-8.52.42-7.75 1.06-15.68-.95-23.27-1.4-6.47-4.18-12.5-6.2-18.78-.78-2.15-1.41-4.44-2.84-6.26-5.1-5.86-10.21-11.71-15.64-17.27-4.19-5.12-10.8-6.99-16.69-9.37-4.12-1.73-8.6-.67-12.89-.91-4.45.02-9.41-1.22-13.31 1.58-6.53 4.45-13.08 8.86-19.45 13.53-6.86 3.9-15.28 3.51-22.66 1.41-9.08-.69-16.23-6.78-24.5-9.86-4.46-1.55-6.46-6.28-10.38-8.63-6.58-4.46-11.14-11.09-16.82-16.52.13 12.13 1.51 24.23 2.3 36.33-.62 10.07-3.43 19.85-5.98 29.56-2.48 5.43-3.7 11.52-7.5 16.25-4.46 5.48-8.61 11.22-13.45 16.4-5.07 6.67-11.88 11.66-18.69 16.41-5.49 3.79-12.01 5.5-18.16 7.86-2.91 1.08-5.77 2.26-8.69 3.28-4.74 1.74-9.85.59-14.74 1.38-6.36.92-12.67-.69-19.01-.91-6.5-.21-12.46-3.39-18.98-3.4-6.54-.05-12.47-3.01-18.41-5.35-7.09-2.67-12.42-8.28-18.64-12.39-1.07-.85-2.43-1.06-3.71-1.32-4.51-3.48-8.18-7.88-12.26-11.82-5.69-5.59-9.8-12.51-13.71-19.4-5.68-8-11.43-16.35-13.72-26.04-1.07-5.58-6.23-9.11-7.35-14.66-2.81-8.34-1.72-17.22-1.84-25.84-.15-8.75 1.42-17.39 2.1-26.08-2.52-2.11-5.3-3.88-8.31-5.19-14.16-6.34-30.16-9.01-45.5-5.98-3.32 10.94-3 22.53-5.27 33.67-2.25 10.95-3.7 22.44-9.82 32.08-1.97 4.25-6.77 6-9.13 9.96-1.73 2.67-3.09 5.55-4.85 8.2-5.6 7.95-13.49 13.81-19.91 21.01-5.52 5.66-11.7 10.73-18.82 14.24-6.65 4.86-14.79 6.61-22.19 9.96-2.33.29-4.54 1.09-6.61 2.19-4.48 2.45-9.71 2.61-14.64 3.4-4.6.71-9.3.77-13.86-.2-6.24-1.34-12.67.07-18.92-1.14-5.65-1.08-11.53-.93-17.02-2.79-2.59-.85-5.2-1.67-7.85-2.3-9.08-1.64-14.87-9.77-23.18-13.1-9.5-7.77-18.31-16.87-23.43-28.17-3.41-5.56-6.23-11.43-8.28-17.63-3.39-7.57-4.44-15.89-4.66-24.1-.13-8.69-.33-17.41.69-26.06.51-4.3 2.71-8.1 3.95-12.19 1.97-6.62 4.35-13.12 6.16-19.79 1.33-5.32 4.7-9.79 6.38-14.97-5.52 1.47-9.78 5.68-15.31 7.08Z"/><path d="M426.55 503.57c5.01-2.41 10.74-.07 14.91 3 2.61 2.15 5.7 4.69 5.75 8.39.12 4.77 1.12 10.2-1.94 14.33-4.97 7.58-14.71 10.26-23.31 10.15-4.65.2-8.34-3.25-10.21-7.21-2.28-3.67-1.47-8.14-1.21-12.2.27-2.24.17-4.87 2.15-6.38 4.18-3.89 8.73-7.51 13.86-10.08ZM695.55 524.46c5.39-2.04 11.5-.38 15.82 3.22 2.46 2.74 3.79 6.3 5.1 9.7 1.72 4.97-.73 9.96-2.68 14.46-1.94 5.05-7.42 6.94-11.87 9.14-5.24 2.51-11.43.79-16.47-1.44-4.63-1.97-5.1-7.49-6.09-11.76-1.5-10.43 6-20.92 16.19-23.32ZM546.39 567.46c6.42-.63 13.8.88 18.16 6.01 2.96 3.13 4.86 7.31 5.27 11.6-.17 6.72-5.39 11.61-10.46 15.29-3.12 2.37-7.24 1.17-10.84 1.25-8.42.08-17.03-5.49-19.39-13.75-1.1-6.31.58-13.74 5.99-17.67 3.51-1.66 7.5-1.95 11.27-2.73ZM444.83 652.86c2.98-2.83 7.11-3.93 10.97-4.97 4.18.9 8.97 1.96 11.37 5.9 6.21 9.56 11.89 19.79 20.53 27.43 8.25 6.51 16.69 12.81 25.52 18.52 4.43 2.85 9.69 3.85 14.65 5.42 13.33 3.83 27.73 2.36 40.48-2.85 8.74-3.05 16.4-8.54 22.89-15.06 6.78-6.91 14.12-13.44 19.3-21.7 2.52-3.73 4.28-8.26 8.19-10.79 3.32-1.87 7.22-2.17 10.89-2.96 5.01 2.51 10.48 5.83 11.62 11.81 2.69 10.16-5.63 18.26-10.91 25.9-4.5 5.43-9.64 10.29-13.93 15.9-8 8.59-18.1 14.95-28.16 20.86-6.44 3.68-13.13 7.26-20.51 8.53-12.47 2.19-25.33 4.06-37.9 1.65-7.4-.95-14.49-3.31-21.46-5.83-6.7-2.43-12.44-6.77-18.37-10.6-9.13-6.02-18.2-12.28-25.96-20.05-5.97-5.69-10.57-12.58-15.85-18.86-2.62-4.33-5.1-8.79-6.79-13.56-1.86-5.04-.03-10.81 3.43-14.69Z"/></g><path fill="#232323" d="M485.43 172.5c6.99-.41 13.98-.18 20.98-.17 8.82-.24 17.28 2.69 25.81 4.5 4.64 1.23 9.48 1.59 14.06 3.08 11.09 5.11 20.32 13.3 29.09 21.64 2.65 2.56 6.71 1.81 10.09 2.08 5.21.3 8.94-4.1 13.81-5.18 5.28-1.15 9.62-4.39 14.25-6.95 11.77-5.83 24.19-11 37.45-11.79 5.9.07 11.75 1.03 17.6 1.71 4.96.68 10.13.98 14.7 3.22 5.88 2.84 10.43 7.71 16.1 10.89 2.9 1.65 6.06 3.17 7.97 6.04 4.35 6.31 11.07 10.3 16.26 15.79 2.37 3.55 2.97 8.01 5.51 11.49 2.68 4.71 7.84 6.89 12.06 9.92 2.53 1.85 5.75 2.23 8.81 2.02 10.98-.84 22.07-2.13 33.06-.71 8.83.92 18.23 1.18 26.07 5.84 4.34 2.64 9.02 4.8 12.9 8.13 4.98 4.35 11.08 7.42 15.23 12.7 3.75 4.92 8.28 9.23 11.47 14.56 2.87 4.77 6.11 9.32 8.76 14.22 2.23 4.12 2.73 8.93 5.11 12.99 6.45 10.54 8.65 22.95 11.06 34.89 2.35 7.97 3.07 16.26 3.68 24.52 1.51 12.64 3.02 25.33 2.72 38.08-.33 6.48 2.57 12.51 2.78 18.93.14 4.79.8 9.55 2.15 14.16 1.56 5.5.71 11.26 1.25 16.88.81 8.63 1.68 17.3 1.07 25.97-.51 8.21.14 16.72-2.83 24.56-1.79 4.54-1.01 9.87-3.86 14.01-2.27 3.33-4.32 6.95-7.37 9.63-7.06 2.25-15 .82-21.33-2.93-5.57-2.54-8.58-8.23-13.56-11.56-5.3-3.68-9.67-8.6-12.79-14.23-2.43-4.43-6.34-7.84-8.48-12.44-2.58-5.6-6.96-10.23-8.73-16.21-1.59-5.18-4.74-9.73-6.03-15-2.25-8.7-5.23-17.2-8.45-25.59-2.33-8.1-3.78-16.44-5.18-24.75-1.54-8.51.44-17.42-2.41-25.72-1.69-6.07-5.12-12.02-10.61-15.34-3.91-1.71-7.74-3.76-11.88-4.81-4.45-.24-8.98.14-13.33 1.09-8.76 3-17.27 7.13-26.55 8.28-4.31.57-8.82 1.66-13.05.12-8.82-2.95-17.95-4.93-26.63-8.32-3.26-1.33-6.86-1.61-10.08-3.02-4.19-2.83-5.91-7.93-9.53-11.31-3.57-2.89-7.81-5.42-12.56-5.3-5.35.15-11.21-2.27-16.16.68-4.08 2.16-6.52 6.23-9.95 9.17-1.89 1.67-4.58 1.59-6.92 1.96-5.76.49-11.27 2.37-16.98 3.13-7.75 1.01-15.11 4.9-23.08 3.97-7.68-1-15.25-2.84-22.53-5.44-4.71-1.66-10.01-1.81-14.14-4.86-4.47-3.06-9.47-6.57-15.21-5.49-4.13.24-7.25 3.11-10.53 5.26-3.59 1.89-7.64 2.75-11.12 4.89-6.41 3.86-14.07 3.9-21.24 5.03-4.7.9-9.33 2.15-14.07 2.81-7.42 1.1-14.51 4.72-22.16 3.8-7.67-1-15.25-2.84-22.53-5.44-4.71-1.65-10.01-1.81-14.14-4.86-4.47-3.06-9.47-6.56-15.21-5.49-5.57.24-8.93 5.4-14.05 6.83-3.85 1.26-8.68 2.47-9.89 6.95-3.18 10.82-10.17 19.85-15.49 29.64-4.52 8.35-9.07 17.42-17.26 22.77-3.64 2.38-5.1 6.85-8.67 9.3-5.82 4.24-11.87 8.14-17.87 12.12-5.47 3.72-12.09 5.07-17.82 8.3-4.91 2.75-11.08.87-15.85 3.99-3.87 2.38-8 4.56-11.26 7.78-3.59 5.64-4.05 12.62-4.11 19.14-.01 7.72-2.05 15.24-2.52 22.93-.48 11.12-3.53 21.93-4.13 33.03-.29 6.3-3.4 12.05-7.04 17.04-3.9 5.41-7.66 11-12.32 15.78-3.47 1.51-7.76 1.2-11.14-.44-4.38-3.6-5.2-9.59-6.46-14.77-1.02-4.51-4.44-8.09-5.1-12.7-.53-3.66-.91-7.36-2.16-10.86-2.26-6.16-1.66-12.8-2.74-19.17-1.33-8.24-2.76-16.57-2.07-24.94.78-10.09 2.3-20.3.3-30.35-1.31-15.58-.63-31.34-3.19-46.82-2.74-12.16 2.78-23.98 6.16-35.41 3.66-8.69 5.89-19.2 14.39-24.6 4.74-2.86 7.46-7.82 11.3-11.63 5.52-5.7 14.19-9.62 15.66-18.19.41-9.33 1.45-18.89 5.78-27.32 2.84-5.48 4.15-11.96 8.71-16.39 2.05-1.97 4.21-3.85 5.91-6.15 6.36-8.33 14.79-14.68 23.12-20.9 5.06-3.91 11.19-5.96 16.55-9.39 5.2-3.34 11.58-3.11 17.33-4.82 9.93-3.31 20.61-1.99 30.77-.66 8.19 1.55 16.85 3.29 24.99.58 4.28-1.63 8.78-3.59 11.64-7.34 5.63-7.41 9.82-15.91 16.59-22.42 2.94-3.63 8.03-4.42 10.95-8.09 2.95-3.39 6.08-6.79 10.24-8.71 5.5-2.52 10.36-6.72 16.53-7.53 5.89-.88 11.91-1.31 17.51-3.47 5.11-2.02 10.6-2.67 16.06-2.84Z"/><g fill="#fcdbc8"><path d="M644.07 380.29c2.65-.35 5.5-1.05 8.14-.3 4.58 2.52 8.25 6.5 13.09 8.63 6.95 2.86 13.67 6.46 21.12 7.92 9.43 1.91 19.1 2.24 28.62 3.61 5.48.85 10.83-.97 16.19-1.79 5.76-1 11.72-1.02 17.3-2.93 2.26-.65 5-1.89 7.1-.11 1.1 1.65.98 3.76 1.32 5.65.63 7.1 2.51 14 3.36 21.07 1.23 10.86 5.77 20.93 8.09 31.54 1.03 5.03 3.02 9.8 5.48 14.29-3.5-3.1-6.48-6.7-9.49-10.24-3.3-3.89-8.05-5.98-12.02-9.03-4.87-4.03-11.27-5.19-16.66-8.33-7.73-2.76-15.78-4.58-23.78-6.36-4.83-1.6-9.84-2.67-14.94-2.39-11.07.25-22.65-.89-33.14 3.36-7.16 2.36-14.71 3.91-21.22 7.88-3.57 2.18-7.52 3.66-11 5.97-5.23 4.01-10.15 8.44-14.39 13.5-3.04 3.66-7.42 5.98-10.19 9.89-2.99 4-5.55 8.29-8.29 12.46-6.33-4.27-13.56-6.85-20.71-9.36-9.16-2.23-18.65-2.89-28.06-2.63-4.95.08-9.73 1.54-14.63 2.05-2.31-6.31-7.59-10.79-10.07-17-4.39-6.74-8.29-14.2-14.88-19.09-4.45-3.54-7.96-8.24-13.05-10.94-5.75-3.11-10.98-7.09-16.79-10.09-10.37-4.61-21.48-7.46-32.68-9.12-9.54-.32-19.1.02-28.64.08-5.55-.11-10.89 1.48-16.31 2.34-5.29.85-10.02 3.51-15.08 5.1-4.92 1.57-8.8 5.08-13.07 7.81 1.73-4.01 5.28-6.64 8.09-9.83 5.3-7.32 7.91-16.12 11.94-24.1 1.53-3.15 5.41-3.15 8.21-1.87 10.84 4.43 22.27 7.68 33.99 8.64 7.53.08 15.16 1.39 22.64.05 6.11-1.5 12.39-2.41 18.3-4.65 8.64-3.25 17.72-5.6 26.99-5.83 7.81-.14 15.94-.34 22.99-4.13 2.38-1.59 5.15-.48 7.54.44 9.82 4.08 20.21 6.81 30.78 7.98 5.91.43 11.84.59 17.77.8 5.26.29 10.15-1.9 15.15-3.14 7.83-2.21 16.16-.74 23.99-3.04 3.84-1.17 7.86-1.39 11.86-1.2 3.45.26 5.73-3.12 9.04-3.56ZM314.1 473.11c5.53-1.4 9.79-5.61 15.31-7.08-1.68 5.18-5.05 9.65-6.38 14.97-1.81 6.67-4.19 13.17-6.16 19.79-1.24 4.09-3.44 7.89-3.95 12.19-1.02 8.65-.82 17.37-.69 26.06.22 8.21 1.27 16.53 4.66 24.1 2.05 6.2 4.87 12.07 8.28 17.63 5.12 11.3 13.93 20.4 23.43 28.17-3.71 5.58-8 10.93-10.21 17.34-2.52 6.95-2.36 14.48-2.11 21.76.51 9.92 1.96 20.12 6.82 28.94 5.91 11.26 15.82 19.95 26.93 25.88 8.35 4.19 18.03 5.74 27.26 4.26 12.19-2.03 24.68-4.77 35.05-11.85 6.13-3.74 10.17-9.87 15.85-14.16 5.28 6.28 9.88 13.17 15.85 18.86 7.76 7.77 16.83 14.03 25.96 20.05 5.93 3.83 11.67 8.17 18.37 10.6 6.97 2.52 14.06 4.88 21.46 5.83 12.57 2.41 25.43.54 37.9-1.65 7.38-1.27 14.07-4.85 20.51-8.53 10.06-5.91 20.16-12.27 28.16-20.86 4.29-5.61 9.43-10.47 13.93-15.9 2.71 2.75 4.99 5.89 7.1 9.12 5.14 7.76 12.77 13.45 20.68 18.16 10.97 6.41 24.21 9.8 36.82 6.98 18.83-4.13 34.5-18.97 40.55-37.16 2.95-9.28 6.66-18.67 6.14-28.58-.2-3.62.27-7.25 1.82-10.55 6.15-2.36 12.67-4.07 18.16-7.86 6.81-4.75 13.62-9.74 18.69-16.41 4.84-5.18 8.99-10.92 13.45-16.4 3.8-4.73 5.02-10.82 7.5-16.25 2.55-9.71 5.36-19.49 5.98-29.56-.79-12.1-2.17-24.2-2.3-36.33 5.68 5.43 10.24 12.06 16.82 16.52 3.92 2.35 5.92 7.08 10.38 8.63 8.27 3.08 15.42 9.17 24.5 9.86 7.38 2.1 15.8 2.49 22.66-1.41 6.37-4.67 12.92-9.08 19.45-13.53 3.9-2.8 8.86-1.56 13.31-1.58 4.29.24 8.77-.82 12.89.91 5.89 2.38 12.5 4.25 16.69 9.37 5.43 5.56 10.54 11.41 15.64 17.27 1.43 1.82 2.06 4.11 2.84 6.26 2.02 6.28 4.8 12.31 6.2 18.78 2.01 7.59 1.37 15.52.95 23.27-.08 3.03-1.22 5.87-2.62 8.52-2.38 4.54-3.77 9.5-5.87 14.16-2.11 5.18-6.81 8.57-9.84 13.14-2.96 4.66-7.85 7.6-10.84 12.24-3.4 5.25-8.57 8.92-13.57 12.52-5.14 3.72-11.37 5.33-17.16 7.71-7.25 2.41-14.53 5.34-22.26 5.55-13.05.6-26.07 1.64-39.13 1.84-5.22.44-10.17 2.4-15.02 4.25-4.62 1.73-7.41 5.99-10.28 9.73-6.84 8.79-13.01 18.17-20.95 26.05-3.27 3.39-7.16 6.15-10.16 9.81-3.04 3.66-7.09 6.25-10.48 9.55-3.11 2.99-7.31 4.52-10.36 7.59-3.1 2.99-6.57 5.57-10.3 7.73-4.17 2.41-7.58 5.99-12.02 7.94-2.47 1.11-4.96 2.24-7.09 3.94-6.34 4.95-13.51 8.66-20.59 12.39-6.73 3.73-14.48 5.1-21.15 8.95-5.17 3.23-11.36 3.81-16.93 6.05-3.54 1.23-6.62 3.49-10.17 4.69-3.3.87-6.76.67-10.11 1.19-8.36 1.26-16.23 4.66-24.61 5.77-6.54.85-12.9 2.64-19.33 4.02-6.85 1.54-13.94 1.5-20.79 3.09-6.11 1.34-12.4 1.07-18.6.78-4.72-.3-9.35.83-14.05.94-5.41.26-10.93-1.01-16.22.62-5.77 1.76-11.77 0-17.64.64-9.35.95-18.76.6-28.13.19-6.53-.01-13.13.41-19.56-1.04-8.6-1.96-17.54-.74-26.13-2.7-5.05-1.11-10.19-1.69-15.34-1.94-6.88-.45-13.37-3.02-19.95-4.85-4.12-1.04-8.42-1.21-12.49-2.46-8.46-2.43-17.46-2.35-25.81-5.22-4.67-1.53-9.38-3.01-13.69-5.4-4.71-2.64-10.15-3.5-14.85-6.13-3.59-1.99-7.41-3.48-11.26-4.84-4.64-1.67-8.6-4.66-12.92-6.94-4.95-2.7-10.24-4.85-14.63-8.45-3.5-2.92-7.94-4.52-11.12-7.83-4.75-4.61-9.37-9.41-14.86-13.15-4.96-3.34-8.28-8.42-12.17-12.84-4.29-5.39-9.41-10.03-14.64-14.47-2.92-2.46-4.82-5.81-7.29-8.65-2.19-2.51-5.42-3.79-7.59-6.3-4.02-5-7.89-10.13-11.97-15.08-5.83-5.52-9.58-13.16-16.72-17.25-3.44-1.14-7.2-.36-10.68-1.37-4.77-1.4-9.22-4.04-14.28-4.28-3.76-.21-7.46-1.01-10.96-2.4-6.17-2.48-12.96-3.11-18.94-6.08-4.83-2.34-9.9-4.12-14.71-6.48-3.06-1.47-4.57-4.7-6.76-7.11-4.02-5.01-9.3-8.74-13.67-13.39-2.23-2.24-2.83-5.44-3.76-8.32-1.16-4.04-3.14-7.79-4.21-11.86-1.02-3.89-.01-7.89.36-11.79.82-5.91-.94-11.93.68-17.78 1.95-8.33 2.78-17.33 7.51-24.67 3.22-4.07 5.59-8.95 9.61-12.28 4.8-2.51 8.29-7.28 13.83-8.27 5.74-1.37 10.9-5.07 16.98-4.88 5.12.09 10.5 1.17 14.71 4.22 3.96 3.76 5.05 9.48 5.46 14.71.04 4.21 4.34 6.4 5.55 10.18 2.08 6.04 6.36 10.91 10.24 15.87 2.77 3.54 7.02 5.25 11.04 6.93 3.21 1.28 6.35 3.25 9.94 3.08 9.84-.43 19.94-1.78 28.68-6.64 4.94-3.23 9.36-7.21 13.05-11.83 3.65-3.5 6.69-7.61 8.66-12.28 6.64-15.38 12.82-31.43 13.57-48.34.48-8.79 3.72-17.16 4.07-25.96.33-5.82.32-11.7 1.62-17.4 6.06-1.76 12.46-1.77 18.52-3.54Z"/><path d="M540.67 493.76c15.34-3.03 31.34-.36 45.5 5.98 3.01 1.31 5.79 3.08 8.31 5.19-.68 8.69-2.25 17.33-2.1 26.08.12 8.62-.97 17.5 1.84 25.84 1.12 5.55 6.28 9.08 7.35 14.66 2.29 9.69 8.04 18.04 13.72 26.04 3.91 6.89 8.02 13.81 13.71 19.4 4.08 3.94 7.75 8.34 12.26 11.82-4.71 7.22-9.29 14.65-11.64 23.03-3.67.79-7.57 1.09-10.89 2.96-3.91 2.53-5.67 7.06-8.19 10.79-5.18 8.26-12.52 14.79-19.3 21.7-6.49 6.52-14.15 12.01-22.89 15.06-12.75 5.21-27.15 6.68-40.48 2.85-4.96-1.57-10.22-2.57-14.65-5.42-8.83-5.71-17.27-12.01-25.52-18.52-8.64-7.64-14.32-17.87-20.53-27.43-2.4-3.94-7.19-5-11.37-5.9-.86-8.49-2.43-16.9-5.12-25.01 7.4-3.35 15.54-5.1 22.19-9.96 7.12-3.51 13.3-8.58 18.82-14.24 6.42-7.2 14.31-13.06 19.91-21.01 1.76-2.65 3.12-5.53 4.85-8.2 2.36-3.96 7.16-5.71 9.13-9.96 6.12-9.64 7.57-21.13 9.82-32.08 2.27-11.14 1.95-22.73 5.27-33.67m5.72 73.7c-3.77.78-7.76 1.07-11.27 2.73-5.41 3.93-7.09 11.36-5.99 17.67 2.36 8.26 10.97 13.83 19.39 13.75 3.6-.08 7.72 1.12 10.84-1.25 5.07-3.68 10.29-8.57 10.46-15.29-.41-4.29-2.31-8.47-5.27-11.6-4.36-5.13-11.74-6.64-18.16-6.01Z"/></g><g fill="#fff"><path d="M423.5 431.85c7.65-.59 15.48-.95 23.01.85 11.84 2.55 23.62 6.37 33.81 13.05 4.62 3.66 9.96 6.56 13.57 11.36 3.21 4.09 7.88 7.18 9.68 12.26 3.32 9.28 7.79 18.28 8.9 28.2 1.21 17.27-1.87 34.65-8.19 50.71-6.19 11.37-15.72 20.25-23.93 30.09-4.31 4.01-8.45 8.25-13.11 11.88-7.94 5.26-17 8.57-26.13 11.11-7 2.6-14.55 2.48-21.88 3.2-9.58-.31-19.21-.79-28.68-2.1-9.3-3.14-19.64-5.04-27.03-11.99-4.11-3.79-9.57-6.68-11.45-12.3-3.06-8.98-8.39-16.95-11.42-25.95-3.59-7.54-3.77-15.99-4.34-24.16-.75-11.92 3.06-23.42 6.04-34.79 6.24-13.97 14.39-27.7 26.61-37.27 7.4-4.87 13.86-11.18 21.83-15.19 7.22-3.46 14.6-6.99 22.61-8.12 3.36-.4 6.74-.46 10.1-.84m3.05 71.72c-5.13 2.57-9.68 6.19-13.86 10.08-1.98 1.51-1.88 4.14-2.15 6.38-.26 4.06-1.07 8.53 1.21 12.2 1.87 3.96 5.56 7.41 10.21 7.21 8.6.11 18.34-2.57 23.31-10.15 3.06-4.13 2.06-9.56 1.94-14.33-.05-3.7-3.14-6.24-5.75-8.39-4.17-3.07-9.9-5.41-14.91-3ZM674.41 456.77c10.44-1.68 21.1-1.5 31.63-.97 7.05.26 13.07 4.35 19.91 5.5 3.96.62 7.3 2.91 10.69 4.9 7.46 4.28 14.68 9.31 20.11 16.07 3.5 3.59 5.72 8.18 9.22 11.76 4.98 4.86 7.67 11.41 10.75 17.52 3.29 6.51 4.54 13.73 6.13 20.78 1.09 4.82.66 9.78.71 14.68-.01 8.15.26 16.48-2.08 24.38-1.25 3.46-2.61 6.89-3.62 10.44-2.39 7.77-8.01 13.85-12.74 20.26-2.79 3.81-6.29 7.04-8.93 10.96-2.02 2.9-4.15 6.02-7.51 7.49-3.43 1.51-6.88 2.98-10.09 4.93-6.51 3.9-14.39 2.71-21.59 3.7-6.71.91-13.21-1.36-19.78-2.28-5.51-1.13-11.28-1.34-16.47-3.65-5.34-2.26-11.1-3.55-15.9-6.95-7.89-4.11-15.22-9.33-21.31-15.83-4.5-5.11-7.41-11.34-11.21-16.93-3.05-4.45-5.37-9.33-7.68-14.18-4.14-7.85-8.11-16.28-8.04-25.35 0-6.97-.49-13.97.29-20.91.88-5.71 2.18-11.34 3.11-17.03 2.18-10.88 9.43-19.58 15.64-28.42 4.06-5.05 10.11-7.86 15.08-11.88 7.25-4.36 15.46-7.11 23.68-8.99m21.14 67.69c-10.19 2.4-17.69 12.89-16.19 23.32.99 4.27 1.46 9.79 6.09 11.76 5.04 2.23 11.23 3.95 16.47 1.44 4.45-2.2 9.93-4.09 11.87-9.14 1.95-4.5 4.4-9.49 2.68-14.46-1.31-3.4-2.64-6.96-5.1-9.7-4.32-3.6-10.43-5.26-15.82-3.22Z"/></g><g fill="#febfad"><path d="M348.6 608.94c8.31 3.33 14.1 11.46 23.18 13.1 2.65.63 5.26 1.45 7.85 2.3 5.49 1.86 11.37 1.71 17.02 2.79 6.25 1.21 12.68-.2 18.92 1.14 4.56.97 9.26.91 13.86.2 4.93-.79 10.16-.95 14.64-3.4 2.07-1.1 4.28-1.9 6.61-2.19 2.69 8.11 4.26 16.52 5.12 25.01-3.86 1.04-7.99 2.14-10.97 4.97-3.46 3.88-5.29 9.65-3.43 14.69 1.69 4.77 4.17 9.23 6.79 13.56-5.68 4.29-9.72 10.42-15.85 14.16-10.37 7.08-22.86 9.82-35.05 11.85-9.23 1.48-18.91-.07-27.26-4.26-11.11-5.93-21.02-14.62-26.93-25.88-4.86-8.82-6.31-19.02-6.82-28.94-.25-7.28-.41-14.81 2.11-21.76 2.21-6.41 6.5-11.76 10.21-17.34ZM641.26 628.77c1.28.26 2.64.47 3.71 1.32 6.22 4.11 11.55 9.72 18.64 12.39 5.94 2.34 11.87 5.3 18.41 5.35 6.52.01 12.48 3.19 18.98 3.4 6.34.22 12.65 1.83 19.01.91 4.89-.79 10 .36 14.74-1.38 2.92-1.02 5.78-2.2 8.69-3.28-1.55 3.3-2.02 6.93-1.82 10.55.52 9.91-3.19 19.3-6.14 28.58-6.05 18.19-21.72 33.03-40.55 37.16-12.61 2.82-25.85-.57-36.82-6.98-7.91-4.71-15.54-10.4-20.68-18.16-2.11-3.23-4.39-6.37-7.1-9.12 5.28-7.64 13.6-15.74 10.91-25.9-1.14-5.98-6.61-9.3-11.62-11.81 2.35-8.38 6.93-15.81 11.64-23.03Z"/></g><g fill="#8e8bc4"><path d="M720.75 824.82c8.26-3.59 15.3-10.05 24.3-11.83 4.81-.94 5.74 4.68 7.26 7.92 2.37 6.73 9.33 10.18 12.39 16.47 2.4 4.84 3.65 10.16 6.1 14.99 5.27 10.17 12.19 20.46 23.12 25.12-8.11 7.33-17.51 13.01-26.85 18.62-11.51 6.96-24.3 11.32-36.77 16.18-11.56 4.43-22.92 9.34-34.53 13.64-7.81 2.87-15.46 6.25-23.56 8.29-13.94 3.48-27.63 7.9-41.57 11.43-14.55 3.9-29.8 3.32-44.53 6.29-9.65 1.18-19.27 3.26-29.03 3.08 5.66-8.58 4.22-19.29 4.82-29.02-.01-10.72 1.83-21.36 1.24-32.08-.36-6.67.81-13.33 0-19.98-.64-4.84-.09-9.74 1.54-14.33 8.06-1.28 16.15-2.54 24.29-3.29 12.41-.3 24.65-2.58 37-3.61 5.97-.54 11.89-1.6 17.71-3.05 8.08-2.02 16.41-3.06 24.33-5.71 10.65-3.64 20.88-8.54 31.85-11.21 7.22-1.88 14.06-4.96 20.89-7.92ZM334.47 824.09c7.03 1.8 12.8 6.58 19.77 8.55 6.15 1.7 12.26 3.54 18.19 5.92 11.77 4.4 24.31 6.16 36.35 9.68 6.18 1.85 12.77 1.34 18.99 3.04 5.91 1.58 12.05 1.7 18.12 2.07 9.4.45 18.7 1.98 28.08 2.68 9.01.29 17.99 1.06 26.99 1.55 10.19-.06 20.42.35 30.48 2.08 1.39 7.03.87 14.21.83 21.33.03 9.69-.65 19.37-.81 29.06-.07 7.03-1.59 13.93-2.04 20.94-.41 8.46-.84 17.51 3.58 25.12-9 .9-17.96-1.01-26.98-.86-15.1-.2-30.06-2.36-44.81-5.49-14.48-3.17-29.22-5.15-43.47-9.35-12.49-3.41-24.34-8.78-36.74-12.49-13.04-3.7-25.96-7.96-38.25-13.74-8.7-4.27-17.88-7.59-26.08-12.84-6.05-3.91-12.68-6.77-18.95-10.27 6.58-4.88 10.42-12.42 13.65-19.74 3.05-6.85 3.28-14.61 6.64-21.34 4.53-9.19 9.98-17.94 16.46-25.9Z"/></g></svg>