<?xml version="1.0" encoding="UTF-8" ?>
<!DOCTYPE svg PUBLIC "-//W3C//DTD SVG 1.1//EN" "http://www.w3.org/Graphics/SVG/1.1/DTD/svg11.dtd">
<svg width="981pt" height="213pt" viewBox="0 0 981 213" version="1.1" xmlns="http://www.w3.org/2000/svg">
<g id="#000000ff">
<path fill="#000000" opacity="1.00" d=" M 492.78 9.84 C 502.63 8.87 512.61 8.58 522.45 9.80 C 533.87 11.24 543.90 17.41 553.25 23.73 C 560.53 28.56 567.71 34.27 571.55 42.34 C 576.20 51.48 575.95 62.24 573.60 71.99 C 572.77 75.41 571.83 78.83 571.62 82.36 C 577.67 83.28 581.60 88.53 584.74 93.29 C 592.00 106.88 595.57 122.83 592.74 138.14 C 590.66 153.60 582.41 168.53 568.98 176.88 C 563.92 180.21 558.18 182.88 552.03 183.04 C 540.70 183.53 529.35 183.65 518.02 183.99 C 515.43 184.20 513.00 183.26 510.67 182.30 C 502.98 179.15 495.14 176.22 486.93 174.76 C 481.42 173.72 475.91 171.05 472.79 166.21 C 470.72 162.84 468.13 159.22 468.86 155.03 C 470.45 126.71 471.51 98.36 472.39 70.01 C 472.95 56.96 472.83 43.86 474.33 30.87 C 474.99 24.59 476.97 18.10 481.73 13.69 C 484.60 10.76 488.94 10.42 492.78 9.84 M 498.89 28.05 C 498.17 30.29 498.16 32.67 498.01 34.99 C 497.55 45.67 497.54 56.35 497.38 67.04 C 497.34 93.67 497.03 120.32 497.94 146.94 C 498.20 150.26 497.97 154.08 500.35 156.74 C 502.47 159.10 505.88 159.20 508.81 159.55 C 522.76 160.60 536.75 160.58 550.72 160.96 C 553.86 158.31 557.45 155.79 558.78 151.69 C 564.53 140.42 571.71 129.08 571.94 116.00 C 572.41 108.01 567.79 100.06 560.62 96.53 C 555.93 94.44 550.80 96.23 546.13 97.39 C 536.90 100.01 527.45 101.63 518.08 103.59 C 514.08 104.32 510.35 106.07 506.34 106.73 C 504.19 102.23 503.86 97.11 503.45 92.22 C 508.87 90.77 514.39 89.70 519.72 87.91 C 528.15 84.95 537.22 80.97 541.83 72.84 C 545.68 66.35 548.55 58.01 545.19 50.72 C 541.48 42.94 535.03 36.47 527.32 32.62 C 520.95 29.71 513.95 28.58 507.08 27.52 C 504.38 27.27 501.33 26.43 498.89 28.05 Z" />
<path fill="#000000" opacity="1.00" d=" M 733.74 16.94 C 739.84 16.99 745.94 16.84 752.04 16.98 C 754.14 17.18 756.67 17.03 758.29 18.66 C 759.58 21.57 759.70 24.83 760.06 27.95 C 761.26 41.97 763.11 55.92 764.77 69.90 C 766.37 82.45 767.26 95.17 770.37 107.47 C 771.38 110.44 772.05 114.27 775.12 115.83 C 780.10 115.94 785.04 114.43 790.08 114.66 C 793.41 114.51 798.55 114.14 799.17 109.99 C 798.74 105.11 796.18 100.74 795.12 96.00 C 790.45 77.30 789.50 57.97 786.93 38.93 C 786.12 33.30 783.18 27.02 786.75 21.74 C 790.74 15.66 798.86 16.14 805.22 16.85 C 810.84 40.83 815.48 65.04 820.46 89.16 C 824.77 109.97 827.96 131.00 830.51 152.09 C 833.73 165.80 833.78 179.94 834.78 193.92 C 831.23 193.82 827.41 193.85 824.40 191.67 C 818.16 187.46 814.75 180.49 810.30 174.64 C 807.90 170.89 804.63 167.69 802.64 163.70 C 802.19 155.92 802.88 148.08 801.83 140.32 C 795.54 141.00 789.22 141.67 783.04 143.05 C 779.78 143.89 775.68 145.16 774.87 148.92 C 772.18 158.83 771.90 169.38 767.92 178.94 C 766.02 184.12 758.77 184.99 754.51 182.43 C 750.87 179.19 749.75 174.12 748.59 169.59 C 745.37 153.97 745.60 137.93 745.42 122.06 C 745.32 118.38 745.51 114.52 743.94 111.09 C 742.08 106.88 739.51 102.83 739.09 98.13 C 738.68 93.07 740.18 88.14 740.70 83.14 C 741.48 77.61 739.63 72.23 738.63 66.85 C 735.07 50.45 735.08 33.59 733.74 16.94 Z" />
<path fill="#000000" opacity="1.00" d=" M 66.98 22.04 C 75.84 21.74 84.28 18.32 93.14 18.25 C 96.95 18.21 100.15 21.24 101.08 24.81 C 102.94 31.45 101.61 38.42 100.66 45.10 C 100.32 46.70 100.02 49.11 97.98 49.33 C 92.59 49.75 87.27 48.35 81.93 47.88 C 74.02 47.08 65.74 45.28 58.00 47.99 C 52.98 49.73 49.39 54.41 48.47 59.57 C 46.37 71.70 48.13 84.05 50.27 96.04 C 53.15 96.32 56.04 96.57 58.92 96.25 C 70.39 95.10 81.83 92.52 93.41 93.45 C 98.13 93.94 103.22 94.88 106.81 98.24 C 109.20 100.45 109.13 104.11 107.97 106.92 C 106.06 111.68 102.55 116.52 97.16 117.45 C 86.25 119.43 75.04 117.69 64.11 119.52 C 60.77 120.16 57.27 121.30 54.95 123.92 C 52.95 126.14 53.31 129.32 53.41 132.07 C 53.90 139.09 54.49 146.10 55.41 153.08 C 55.79 155.29 56.02 157.69 57.44 159.53 C 58.90 159.97 60.44 159.66 61.93 159.52 C 74.29 157.63 85.73 152.09 98.01 149.80 C 104.99 148.52 112.87 150.96 117.11 156.84 C 119.09 159.56 119.45 163.56 117.31 166.29 C 113.95 170.60 108.61 172.70 103.58 174.37 C 92.61 177.64 81.32 179.62 70.06 181.57 C 61.87 182.66 53.56 184.69 45.28 183.65 C 43.41 180.80 42.87 177.34 42.15 174.07 C 38.29 153.83 37.60 133.12 33.56 112.91 C 31.10 100.15 31.95 87.06 30.26 74.21 C 29.33 67.20 28.19 59.80 23.88 53.98 C 21.80 51.09 18.30 49.61 16.36 46.62 C 14.07 42.65 14.78 37.88 15.13 33.54 C 19.41 33.47 23.85 33.69 27.92 32.14 C 31.80 30.61 34.56 27.37 37.62 24.70 C 39.94 22.60 42.95 21.44 45.20 19.24 C 52.20 21.54 59.61 22.74 66.98 22.04 Z" />
<path fill="#000000" opacity="1.00" d=" M 255.36 25.47 C 260.54 23.63 264.90 29.52 265.67 34.09 C 266.72 40.33 266.47 46.69 266.56 52.99 C 266.29 77.17 268.70 101.29 271.84 125.24 C 273.62 139.71 274.31 154.36 273.31 168.92 C 272.79 173.65 272.57 178.77 269.87 182.86 C 267.79 185.95 263.85 183.86 261.13 182.96 C 257.72 181.39 253.22 180.03 252.03 176.02 C 250.20 169.24 253.12 162.57 254.35 155.98 C 254.21 151.85 251.93 148.14 251.40 144.05 C 249.54 132.12 250.64 119.99 249.72 107.98 C 248.36 86.27 241.75 64.79 244.38 42.91 C 245.27 36.00 247.98 27.77 255.36 25.47 Z" />
<path fill="#000000" opacity="1.00" d=" M 672.44 33.52 C 676.76 32.31 682.51 31.41 686.08 34.79 C 689.55 40.69 689.39 47.88 691.74 54.21 C 696.93 69.50 705.30 83.51 710.10 98.95 C 713.43 108.96 715.15 119.48 715.25 130.03 C 715.38 144.77 720.70 158.77 722.75 173.25 C 723.11 176.83 723.48 181.01 720.98 183.95 C 719.19 186.22 715.96 185.94 713.46 185.32 C 707.42 183.70 701.62 180.22 698.27 174.83 C 692.12 164.92 688.95 153.38 682.06 143.91 C 679.37 140.09 674.55 138.12 669.96 138.92 C 660.23 140.23 652.33 146.90 645.66 153.64 C 640.79 158.44 639.58 165.42 637.33 171.59 C 634.46 179.64 631.81 187.98 626.85 195.02 C 621.89 201.70 610.93 201.48 605.64 195.35 C 604.12 193.56 604.87 191.10 605.42 189.10 C 608.86 178.32 616.32 168.68 616.64 157.03 C 616.95 151.97 611.86 149.14 610.25 144.83 C 610.88 137.53 616.83 132.45 620.55 126.59 C 632.56 107.86 638.56 86.19 648.20 66.29 C 651.83 58.69 655.49 51.09 659.76 43.84 C 662.50 38.96 667.23 35.40 672.44 33.52 M 661.02 105.00 C 659.34 109.57 658.32 115.89 662.62 119.36 C 669.43 124.20 679.78 116.93 678.92 109.00 C 678.32 102.25 674.89 96.01 670.84 90.71 C 665.32 93.49 663.09 99.60 661.02 105.00 Z" />
<path fill="#000000" opacity="1.00" d=" M 913.37 33.55 C 917.72 32.31 923.54 31.38 927.11 34.83 C 930.54 40.72 930.39 47.87 932.73 54.17 C 937.74 69.02 945.83 82.63 950.64 97.56 C 954.25 108.00 956.16 119.00 956.25 130.04 C 956.39 144.03 961.15 157.36 963.43 171.05 C 963.97 174.89 964.67 179.13 962.83 182.74 C 961.64 185.30 958.62 186.22 956.01 185.62 C 949.11 184.32 942.45 180.34 938.86 174.18 C 933.11 164.58 929.90 153.62 923.45 144.41 C 920.96 140.70 916.55 138.30 912.03 138.83 C 901.87 139.69 893.61 146.64 886.72 153.59 C 881.81 158.38 880.59 165.37 878.34 171.56 C 875.47 179.62 872.82 187.98 867.84 195.04 C 862.87 201.70 851.93 201.47 846.64 195.35 C 845.14 193.59 845.85 191.16 846.40 189.18 C 849.82 178.37 857.32 168.71 857.64 157.03 C 857.95 151.96 852.85 149.14 851.25 144.82 C 851.87 137.50 857.87 132.41 861.59 126.54 C 870.56 112.52 876.24 96.77 882.49 81.44 C 887.82 68.79 893.66 56.31 900.44 44.37 C 903.17 39.28 907.98 35.49 913.37 33.55 M 906.16 96.01 C 903.53 100.66 901.26 105.69 900.61 111.04 C 900.16 114.72 901.71 119.00 905.41 120.39 C 912.72 122.98 921.35 115.58 919.84 107.91 C 918.88 101.59 915.72 95.74 911.86 90.72 C 909.63 92.08 907.40 93.63 906.16 96.01 Z" />
<path fill="#000000" opacity="1.00" d=" M 193.06 39.52 C 196.08 39.52 198.97 38.58 201.92 38.08 C 206.30 37.50 210.30 39.96 213.50 42.67 C 220.66 48.79 226.80 55.97 232.78 63.21 C 230.96 85.24 229.66 107.48 224.20 128.98 C 222.24 137.42 217.87 144.99 215.18 153.19 C 213.23 159.22 209.45 164.56 204.65 168.66 C 192.39 179.07 175.95 183.85 160.01 182.93 C 150.16 182.69 140.61 179.49 132.26 174.34 C 132.30 158.90 132.26 143.45 131.46 128.03 C 130.79 107.01 129.15 85.95 130.52 64.92 C 130.86 58.12 132.52 51.51 134.44 45.01 C 138.81 43.39 143.30 42.00 147.97 41.61 C 162.96 40.18 178.03 40.04 193.06 39.52 M 166.27 62.02 C 164.43 83.97 162.90 105.97 163.06 128.01 C 163.20 139.77 162.80 151.77 166.03 163.21 C 172.33 162.64 178.93 163.19 184.93 160.84 C 190.62 158.38 193.66 152.52 196.29 147.26 C 201.60 136.30 202.25 123.92 202.64 111.96 C 203.14 95.00 202.96 78.03 203.00 61.06 C 197.92 61.01 192.66 61.55 187.84 59.60 C 180.63 58.09 173.14 59.69 166.27 62.02 Z" />
<path fill="#000000" opacity="1.00" d=" M 331.99 69.09 C 349.00 68.21 366.07 66.60 383.09 68.10 C 386.79 68.61 390.87 68.85 393.98 71.14 C 395.45 74.06 395.22 77.62 394.54 80.73 C 392.59 84.23 388.94 86.35 386.25 89.24 C 367.27 107.92 348.99 127.30 329.71 145.67 C 324.40 150.92 318.77 155.92 314.22 161.87 C 322.38 163.60 330.76 163.66 339.06 164.19 C 350.01 164.61 361.02 165.17 371.95 164.10 C 377.06 163.70 381.93 161.81 387.05 161.49 C 392.26 161.29 397.86 164.78 399.03 170.02 C 398.95 173.43 395.64 175.41 393.08 177.03 C 389.31 179.06 385.47 181.78 380.96 181.28 C 358.49 180.76 335.98 181.42 313.53 180.20 C 306.82 179.23 298.97 178.23 294.75 172.22 C 292.04 169.17 294.53 165.19 296.23 162.32 C 303.85 150.74 313.68 140.88 322.16 129.97 C 333.42 117.96 345.30 106.55 357.33 95.32 C 360.47 92.31 363.56 89.24 366.48 86.01 C 347.08 88.76 327.39 86.61 307.91 88.26 C 303.20 88.60 298.39 91.23 293.74 89.23 C 290.09 87.46 286.69 84.63 284.93 80.93 C 283.86 77.65 287.98 76.24 290.31 75.19 C 303.67 70.56 318.00 70.00 331.99 69.09 Z" />
</g>
</svg>
